<svg fill="none" height="64" viewBox="0 0 64 64" width="64" xmlns="http://www.w3.org/2000/svg"><path d="m57.4479 18.6963c.039.5533.039 1.1066.039 1.6651 0 17.015-13.2082 36.6386-37.36 36.6386v-.0102c-7.1345.0102-14.12081-1.994-20.1269-5.7728 1.03742.1224 2.08003.1836 3.12525.1861 5.91249.0051 11.65595-1.9404 16.30745-5.5229-5.6187-.1046-10.54576-3.6973-12.26699-8.9423 1.96823.3722 3.99629.2957 5.92809-.2219-6.12569-1.2137-10.53276-6.4919-10.53276-12.6217 0-.0561 0-.1096 0-.1632 1.82523.997 3.86886 1.5503 5.95929 1.6115-5.76949-3.7814-7.547915-11.3085-4.06386-17.19353 6.66653 8.04473 16.50243 12.93533 27.06123 13.45293-1.0582-4.4724.3874-9.159 3.7987-12.30295 5.2884-4.87529 13.606-4.62541 18.5772.55845 2.9407-.56865 5.7591-1.62683 8.3384-3.12614-.9802 2.98076-3.0317 5.51274-5.7721 7.12174 2.6026-.3009 5.1455-.9843 7.5401-2.0272-1.7628 2.5907-3.9833 4.8473-6.5521 6.6704z" fill="#fff"/></svg>
