<svg fill="none" height="64" viewBox="0 0 64 64" width="64" xmlns="http://www.w3.org/2000/svg" xmlns:xlink="http://www.w3.org/1999/xlink"><path d="m64 31.9835c0-17.6551-14.3357-31.9835-32-31.9835s-32 14.3284-32 31.9835c0 15.9753 11.6993 29.2167 27.0237 31.5883v-22.3654h-8.173v-9.2229h8.173v-7.0489c0-8.0041 4.7456-12.4508 12.0618-12.4508 3.4933 0 7.1184.6588 7.1184.6588v7.8064h-4.0206c-3.9876 0-5.2399 2.5034-5.2399 5.0067v5.9949h8.898l-1.4171 9.2228h-7.4809v22.3655c15.3573-2.3387 27.0566-15.5801 27.0566-31.5554z" fill="#fff"/><path d="m44.4573 41.2393 1.4171-9.2228h-8.8981v-5.9949c0-2.5363 1.2853-5.0067 5.24-5.0067h4.0206v-7.8394s-3.6251-.6588-7.1185-.6588c-7.3161 0-12.0617 4.4468-12.0617 12.4509v7.0489h-8.1731v9.2228h8.1731v22.3654c1.6148.2635 3.2955.3953 4.9763.3953 1.6807 0 3.3615-.1318 4.9763-.3953v-22.3654z" fill="#000"/></svg>
