<svg fill="none" height="64" viewBox="0 0 64 64" width="64" xmlns="http://www.w3.org/2000/svg" xmlns:xlink="http://www.w3.org/1999/xlink"><path clip-rule="evenodd" d="m18.7471.223803c-3.4048.160641-5.73.704007-7.7626 1.502737-2.10372.81985-3.88678 1.92002-5.66087 3.70052-1.7741 1.78049-2.86659 3.56483-3.68068 5.67174-.787849 2.0371-1.321615 4.3642-1.472016 7.771-.1504019 3.4067-.1836822 4.5018-.16704207 13.1918.01664017 8.69.05504057 9.7793.22016207 13.1931.162562 3.4042.704007 5.7287 1.502736 7.762.82113 2.1037 1.92002 3.8861 3.70116 5.6608 1.78113 1.7748 3.56419 2.8647 5.67625 3.68 2.0352.7866 4.3629 1.3229 7.769 1.4721 3.4061.1491 4.5024.1836 13.1899.167 8.6874-.0166 9.7812-.055 13.1944-.217 3.4131-.1619 5.7255-.7072 7.7594-1.5021 2.1037-.823 3.8874-1.92 5.6609-3.7018 1.7734-1.7817 2.8653-3.5673 3.6787-5.6755.7885-2.0352 1.3242-4.3629 1.472-7.7665.1492-3.4157.1844-4.5063.1677-13.195-.0166-8.6887-.0557-9.778-.2176-13.1906-.1619-3.4125-.704-5.7299-1.5021-7.7645-.8224-2.10371-1.92-3.88485-3.7005-5.66087-1.7805-1.77601-3.5674-2.86722-5.6749-3.67875-2.0365-.787851-4.363-1.324816-7.7691-1.472018-3.4061-.1472014-4.5024-.1849618-13.1931-.1683216-8.6906.0166402-9.7786.0537605-13.1918.2201626zm.3739 57.848897c-3.1201-.1357-4.8142-.6541-5.9431-1.088-1.4951-.576-2.5601-1.2723-3.68519-2.3866-1.12513-1.1142-1.81634-2.183-2.40002-3.6749-.43841-1.129-.96641-2.8211-1.11233-5.9412-.15872-3.3722-.192-4.3847-.21056-12.9281-.01856-8.5435.01408-9.5547.16192-12.9281.13312-3.1175.65472-4.8135 1.08801-5.9419.576-1.4969 1.26977-2.56 2.38658-3.68448 1.11679-1.12449 2.18239-1.81698 3.67559-2.40067 1.1277-.44032 2.8198-.96385 5.9386-1.11233 3.3747-.16 4.386-.192 12.9281-.21056 8.5422-.01856 9.556.01344 12.932.16192 3.1175.13568 4.8141.65217 5.9412 1.08801 1.4957.57601 2.56 1.26785 3.6845 2.38659 1.1245 1.11872 1.8176 2.18052 2.4013 3.67682.441 1.1245.9645 2.816 1.1117 5.9367.1606 3.3748.1971 4.3866.2125 12.9281.0153 8.5416-.0148 9.556-.1626 12.9282-.1363 3.12-.6534 4.8147-1.088 5.945-.576 1.4944-1.2704 2.56-2.3879 3.6839-1.1174 1.1238-2.1818 1.8163-3.6755 2.4-1.1264.4397-2.8205.9645-5.9367 1.113-3.3748.1587-4.386.192-12.9314.2105-8.5453.0186-9.5533-.016-12.9281-.1619zm28.4639-39.6316c-1.4361-.5919-2.3742-1.9906-2.3768-3.5439-.0035-2.1203 1.7121-3.8422 3.8324-3.8464 1.5532-.0031 2.9554.9298 3.5526 2.3637.5971 1.4339.2717 3.0863-.8247 4.1867-1.0963 1.1003-2.7475 1.4318-4.1835.8399zm-32.0154 13.591c.0179 9.0753 7.3882 16.4156 16.4616 16.3983s16.4187-7.387 16.4014-16.4623-7.3895-16.4174-16.4641-16.3995c-9.0747.0179-16.4162 7.3895-16.3989 16.4635zm16.4097-10.6996c-5.8912.0117-10.6575 4.7969-10.6458 10.6881.0052 2.8292 1.1343 5.5403 3.1388 7.5369s4.7201 3.1149 7.5493 3.109c5.8912-.0117 10.6575-4.7969 10.6458-10.6881s-4.7969-10.6575-10.6881-10.6459z" fill="#fff" fill-rule="evenodd"/></svg>
