<svg fill="none" height="64" viewBox="0 0 64 64" width="64" xmlns="http://www.w3.org/2000/svg" xmlns:xlink="http://www.w3.org/1999/xlink"><path clip-rule="evenodd" d="m62.6624 16.9951c-.7359-2.7532-2.9043-4.9221-5.658-5.658-4.991-1.3371-25.0047-1.3371-25.0047-1.3371s-20.0131 0-25.00414 1.3371c-2.75365.7359-4.92202 2.9048-5.65798 5.658-1.33758 4.9916-1.33758 15.4046-1.33758 15.4046s0 10.4136 1.33758 15.4047c.73596 2.7531 2.90433 4.9226 5.65798 5.658 4.99104 1.3376 25.00414 1.3376 25.00414 1.3376s20.0137 0 25.0047-1.3376c2.7537-.7354 4.9221-2.9049 5.658-5.658 1.3376-4.9911 1.3376-15.4047 1.3376-15.4047s0-10.413-1.3376-15.4046" fill="#fff" fill-rule="evenodd"/><path clip-rule="evenodd" d="m25.7606 41.8751 16.6268-9.5996-16.6268-9.6008z" fill="#000" fill-rule="evenodd"/></svg>
