<svg height="119" viewBox="0 0 227 119" width="227" xmlns="http://www.w3.org/2000/svg"><path d="m153.957 76.659 2.067-5.63h-9.501l1.472-4.295h10.294l2.26-6.211h-19.43l-.27.79.463.456c.502.485.48 1.06.048 2.312l-8.094 23.36h18.158l2.193-6.252h-10.597l1.56-4.53h9.376zm-22.664-16.12-9.893 19.344h-.208l-.5-19.344h-8.277l-.323.698.712.429c.684.481.875.97.964 2.312l1.12 23.473h9.224l14.881-26.912h-7.699zm-74.212 3.47-20.399 6.678-2.49 6.805h17.99l2.342-6.412h-12.472l14.156-4.77zm19.32 6.299c-.465 1.15-.979 1.426-1.647 1.698-.453.176-1.404.24-2.325.24h-3.56l1.937-5.561h4.302c1.288 0 1.814.666 1.831 1.427.008.484-.216 1.37-.537 2.196zm-.64-9.769h-11.672l-.236.698.472.46c.499.49.48 1.067.043 2.312l-8.155 23.441h7.453l3.188-9.305 2.521.003 2.806 9.302h7.49l-3.524-9.52c2.044-.33 3.073-.911 4.098-1.82 1.404-1.28 2.378-3.074 3.184-5.717 1.175-3.834.465-6.024-.292-7.15-1.039-1.547-3.231-2.705-7.376-2.705zm100 9.769c-.463 1.15-.982 1.426-1.642 1.698-.461.176-1.404.24-2.32.24h-3.559l1.922-5.561h4.309c1.28 0 1.814.666 1.825 1.427.013.484-.217 1.37-.535 2.196zm-.648-9.769h-11.672l-.227.698.468.46c.5.49.476 1.067.05 2.312l-8.164 23.442h7.462l3.183-9.302h2.523l2.806 9.302h7.482l-3.513-9.52c2.04-.33 3.064-.911 4.088-1.82 1.408-1.28 2.386-3.074 3.189-5.717 1.179-3.834.468-6.024-.287-7.15-1.039-1.547-3.234-2.705-7.388-2.705zm15.305 36.117c-20.476 10.533-47.79 16.334-76.92 16.334-29.123 0-56.432-5.8-76.911-16.334-19.692-10.133-30.548-23.33-30.548-37.152 0-13.834 10.856-27.03 30.548-37.156 20.479-10.53 47.788-16.338 76.912-16.338 29.13 0 56.443 5.809 76.92 16.338 19.697 10.125 30.54 23.322 30.54 37.156 0 13.821-10.843 27.019-30.54 37.152zm2.772-79.65c-21.325-10.966-49.625-17.006-79.691-17.006-30.064 0-58.364 6.04-79.685 17.006-12.628 6.499-33.814 20.66-33.814 42.498 0 21.828 21.186 35.995 33.814 42.493 21.314 10.965 49.613 17.003 79.686 17.003 30.072 0 58.371-6.038 79.69-17.003 12.63-6.498 33.81-20.66 33.81-42.493 0-21.842-21.182-36-33.81-42.498zm-5.64 74.127c-22.033 11.33-49.435 15.635-74.051 15.635-24.615 0-52.012-4.305-74.049-15.635-11.662-6-27.16-17.061-27.16-31.63 0-14.58 15.496-25.63 27.16-31.628 22.037-11.329 49.432-15.637 74.049-15.637 24.616 0 52.018 4.3 74.05 15.637 11.67 5.998 27.163 17.046 27.163 31.629 0 14.573-15.496 25.628-27.163 31.629zm1.143-65.468c-22.37-11.513-50.221-15.919-75.194-15.919-24.974 0-52.82 4.41-75.196 15.919-12.565 6.46-28.513 18.12-28.513 33.839 0 15.707 15.95 27.371 28.513 33.84 22.377 11.501 50.229 15.911 75.196 15.911 24.973 0 52.824-4.403 75.194-15.912 12.57-6.468 28.517-18.132 28.517-33.84 0-15.718-15.943-27.377-28.517-33.838zm-86.854 48.808c-.928 2.644-1.656 4.347-2.73 5.47-.845.883-1.958 1.516-4.527 1.516-2.013 0-3.133-.818-3.133-2.369-.013-1.002.258-2.522 1.336-5.476.93-2.643 1.656-4.346 2.734-5.472.834-.88 1.954-1.516 4.522-1.516 2.012 0 3.131.818 3.129 2.363.019 1.012-.253 2.532-1.33 5.484zm-.431-14.265h-.857c-5.096 0-8.004 1.368-10.394 3.891-2.97 3.13-5.761 11.584-5.706 16.06.055 4.559 3.02 7.72 9.249 7.72h.91c5.108 0 8.018-1.368 10.406-3.892 2.97-3.134 5.702-11.586 5.648-16.055-.06-4.56-3.023-7.724-9.256-7.724zm-53.708-5.49 18.448-.004 2.229-6.415h-10.724l7.086-20.49h-9.251l-.232.694.463.458c.502.49.484 1.068.048 2.315zm48.603-.01h6.781l5.911-17.41 3.46 17.41h6.785l9.25-26.908-7.093.01-4.94 14.626-2.822-14.626h-9.558l-.233.693.468.458c.502.49.478 1.068.05 2.315l-8.059 23.431zm41.945-20.516h2.954c2.013 0 3.123.67 3.15 2.223.015 1-.253 2.368-1.298 5.321-.922 2.639-1.658 4.168-2.708 5.29-.839.881-1.957 1.273-4.525 1.273h-2.468zm-6.485-2.916-8.07 23.442h11.909c5.105 0 8.016-1.124 10.383-3.648 2.964-3.123 5.676-11.25 5.587-15.722-.087-4.565-3.048-7.538-9.274-7.538h-10.822l-.225.693.47.458c.497.49.478 1.068.042 2.315zm44.935 6.183h-17.986l-2.342 6.407h12.465l-14.158 4.783-.874 2.293 20.399-6.678zm-89.755-2.211h.245l.127 8.128h-4.977zm-18.883 19.46h7.846l3.4-5.947h8.126l.08 5.946h7.121l-1.536-26.897h-10.66l-.237.693.344.342c.562.547.33 1.336-1.745 4.614l-12.739 21.248z" fill="#fff" fill-rule="evenodd"/></svg>
