<svg viewBox="0 0 245.16 85.4" xmlns="http://www.w3.org/2000/svg"><g fill="#fff"><path d="m16.58 24.75c-3.94 0-7.56 1.38-10.41 3.7l1.13 1.15c2.64-2.09 5.96-3.15 9.28-3.15 7.41 0 12.62 4.29 27.04 14.71 5.06 3.66 9.26 6.83 12.97 9.42v-2.13c-2.63-1.87-5.65-4.09-9.25-6.69-14.47-10.46-21.97-17.01-30.76-17.01" opacity=".3"/><path d="m34.36 0h-8.84v41.57c0 8.92-3.35 14.63-8.95 14.63-7.97 0-14.58-5.32-14.58-14.74 0-4.49 1.5-7.98 3.8-10.47l-1.13-1.15c-2.88 3-4.66 7.09-4.66 11.62 0 9.61 7.44 16.71 16.57 16.71s17.79-5.48 17.79-18.48z"/><path d="m74.37 56.47c-3.09 0-5.8-.75-8.95-2.37v-12.76c0-8.92 3.35-14.63 8.95-14.63s7.74 5.32 7.74 14.74c0 9.94-2.41 15.02-7.74 15.02m0-31.72c-9.14 0-17.79 5.48-17.79 18.48v17.66c0 10.54 7.34 9.89 7.34 13.6s-4.26 9.47-10.68 9.47c-2.51 0-3.34-2.07-3.34-4.62v-79.34h-8.84v74.27c0 6.15 6.12 11.13 12.18 11.13s12.18-4.99 12.18-11.13v-18.33c3.06 1.44 5.93 2.22 8.95 2.22 9.14 0 16.57-7.43 16.57-16.71s-7.43-16.71-16.57-16.71"/><path d="m108.14 45.62c1.11 0 1.98.27 2.6.81s.93 1.29.93 2.26c0 1.07-.34 1.85-1.02 2.34s-1.6.73-2.76.73h-1.49v4.7h-1.56v-10.84h3.31zm-1.75 4.77h1.43c.74 0 1.3-.13 1.68-.38s.56-.7.56-1.35-.19-1.05-.57-1.3-.94-.37-1.67-.37h-1.43z"/><path d="m121.28 45.55 4.85 10.9h-1.59l-1.45-3.19h-4.61l-1.37 3.19h-1.59l4.66-10.9zm-2.21 6.31h3.42l-1.76-4.2-1.65 4.2z"/><path d="m134.65 45.62c.99 0 1.79.29 2.39.86s.9 1.29.9 2.16c0 .64-.15 1.18-.45 1.63s-.75.8-1.36 1.04c.34.22.61.44.82.66s.6.75 1.17 1.6l1.91 2.89h-1.84l-1.72-2.67c-.47-.72-.89-1.24-1.26-1.56-.38-.32-.8-.48-1.28-.48h-.7v4.72h-1.56v-10.84h2.99zm-1.43 4.75h1c.78 0 1.33-.15 1.65-.44s.48-.73.48-1.29c0-.53-.15-.94-.46-1.22-.31-.29-.76-.43-1.35-.43h-1.32v3.39z"/><path d="m152.94 45.62v1.36h-3.78v9.47h-1.56v-9.47h-3.72v-1.36z"/><path d="m160.03 45.62 7.26 8.4v-8.4h1.49v10.83h-1.35l-7.2-8.34v8.34h-1.49v-10.83z"/><path d="m181.66 45.62v1.38h-4.6v3.3h4.44v1.39h-4.44v3.37h4.74v1.39h-6.29v-10.83z"/><path d="m191.11 45.62c.99 0 1.79.29 2.39.86s.9 1.29.9 2.16c0 .64-.15 1.18-.45 1.63s-.75.8-1.36 1.04c.34.22.61.44.82.66s.6.75 1.17 1.6l1.91 2.89h-1.84l-1.72-2.67c-.47-.72-.89-1.24-1.26-1.56s-.8-.48-1.28-.48h-.7v4.72h-1.56v-10.84h2.99zm-1.43 4.75h1c.78 0 1.33-.15 1.65-.44s.48-.73.48-1.29c0-.53-.15-.94-.46-1.22-.31-.29-.76-.43-1.35-.43h-1.32v3.39z"/><path d="m207.47 46.23v1.76c-.37-.36-.76-.64-1.18-.83-.42-.2-.87-.29-1.36-.29s-.89.12-1.17.35-.42.54-.42.91c0 .72.46 1.33 1.37 1.84.92.5 1.68 1.02 2.28 1.55s.91 1.28.91 2.26c0 .82-.29 1.49-.87 2.03s-1.34.8-2.27.8c-.54 0-1.05-.09-1.54-.26s-.95-.42-1.38-.74v-1.97c.38.51.82.9 1.32 1.18s1.03.41 1.6.41c.46 0 .83-.13 1.14-.4s.45-.61.45-1.03c0-.47-.16-.86-.48-1.18s-.92-.74-1.8-1.25c-.88-.52-1.48-1.02-1.8-1.49-.32-.48-.48-1.04-.48-1.68 0-.77.3-1.42.91-1.93s1.37-.77 2.29-.77c.44 0 .88.07 1.3.2s.82.32 1.19.56"/><path d="m215.68 45.62v4.68h6.09v-4.68h1.56v10.83h-1.56v-4.72h-6.09v4.72h-1.56v-10.83z"/><path d="m230.05 45.61h1.56v10.84h-1.56z"/><path d="m241.63 45.62c1.11 0 1.98.27 2.6.81s.93 1.29.93 2.26c0 1.07-.34 1.85-1.02 2.34s-1.6.73-2.76.73h-1.49v4.7h-1.56v-10.84h3.31zm-1.75 4.77h1.43c.74 0 1.3-.13 1.68-.38s.56-.7.56-1.35-.19-1.05-.57-1.3-.94-.37-1.67-.37h-1.43z"/><path d="m113.15 26.72h1.55v9.27c0 1.04-.06 2.2-.81 3.01-.37.39-.82.63-1.35.74-.03-.02-1.44-1.44-1.44-1.44.42 0 .86.03 1.25-.14.28-.11.47-.3.59-.57.14-.27.2-.89.2-1.78v-9.09z"/><path d="m126.81 28.04c-1.24 0-2.26.39-3.06 1.16-.8.78-1.2 1.77-1.2 2.97s.4 2.14 1.2 2.92c.8.77 1.8 1.16 3.01 1.16s2.22-.4 3.03-1.19 1.21-1.77 1.21-2.95-.4-2.11-1.21-2.9c-.81-.78-1.8-1.17-2.98-1.17m-.06-1.47c1.67 0 3.07.53 4.18 1.59s1.67 2.39 1.67 3.98-.56 2.92-1.68 3.97-2.54 1.57-4.25 1.57-2.99-.52-4.08-1.57-1.63-2.36-1.63-3.94.55-2.96 1.64-4.02 2.48-1.59 4.15-1.59"/><path d="m146.5 26.72h1.55v10.83h-1.55v-4.71h-6.34v4.71h-1.55v-10.83h1.55v4.72h6.34z"/><path d="m163.66 26.72h1.47v10.83h-1.33l-7.57-8.34v8.34h-1.46v-10.83h1.26l7.63 8.41z"/><path d="m179.02 26.72v10.83h6.64v-1.4h-5.08v-9.43z"/><path d="m191.17 26.72v10.83h6.98v-1.4h-5.43v-3.36h5.13v-1.4h-5.13v-3.27h5.29v-1.4z"/><path d="m217.83 26.72-2.96 7.46-3.01-7.46h-1.48l-3 7.46-2.99-7.46h-1.55l4.38 10.93h.3l3.59-8.87 3.56 8.87h.3l4.4-10.93z"/><path d="m224.91 26.72h1.56v10.83h-1.56z"/><path d="m236 33.02-1.18-.72c-.74-.45-1.21-.9-1.54-1.32-.35-.43-.52-.97-.52-1.54 0-.85.3-1.55.89-2.08s1.38-.79 2.33-.79c1 0 1.73.25 2.49.76v1.76c-.78-.75-1.62-1.13-2.52-1.13-.51 0-.92.12-1.25.35s-.49.54-.49.91c0 .32.08.59.32.88.24.28.67.62 1.2.93l1.23.7c1.32.79 1.94 1.79 1.94 3.01 0 .87-.3 1.58-.88 2.13-.58.54-1.33.83-2.26.81-1.07-.02-2.02-.32-2.92-1v-1.97c.84 1.06 1.81 1.57 2.91 1.57.48 0 .89-.11 1.21-.38s.5-.61.5-1.02c0-.66-.49-1.28-1.44-1.88"/></g></svg>
