<svg fill="none" height="64" viewBox="0 0 64 64" width="64" xmlns="http://www.w3.org/2000/svg" xmlns:xlink="http://www.w3.org/1999/xlink"><path d="m29.1751 1.21006c1.5601-1.560149 4.0896-1.560149 5.6498 0l27.965 27.96504c.0145.0145.0288.029.0431.0437l.0423.0443.0064.0068c.3295.3515.5835.7482.7619 1.1692l.0025.0059c.186.4397.2955.9196.3118 1.4231l.0001.0076.0002.0016c.0018.0613.0018.1227.0018.184v.0048c-.0087.5055-.1108.9882-.2901 1.4314l-.0017.0039-.0007.0019c-.156.3847-.3744.7501-.6552 1.0805l-.0101.0115-.0038.0046-.0084.0096-.0203.0236c-.0144.0164-.0289.0326-.0436.0488l-.0066.007-.0024.0029-.0132.014-.0222.0243-.005.0051-.0013.0016c-.0141.0149-.0282.0297-.0424.0444l-.0431.0437-27.965 27.965c-1.5602 1.5602-4.0897 1.5602-5.6498 0-1.5601-1.5601-1.5601-4.0896 0-5.6498l21.1452-21.1452-46.28535.0001c-2.18431 0-3.9591882-1.753-3.9950025-3.9289v-.0661c0-2.2064 1.7886225-3.995 3.9950025-3.995h46.28535l-21.1452-21.14515c-1.5445-1.54455-1.56-4.03915-.0463-5.6027z" fill="#2ca02e"/></svg>
