<svg fill="none" height="12" viewBox="0 0 10 12" width="10" xmlns="http://www.w3.org/2000/svg"><g fill="#8e8e8e"><path d="m8.05921 8.36442c-.55265 0-1.08757-.17693-1.5296-.49265-.44203.3157-.97692.49265-1.52958.49265-.55265 0-1.08754-.17693-1.5296-.49265-.44201.3157-.97692.49265-1.52955.49265-.40222 0-.78357-.09087-1.12484-.25287v1.77307c0 1.16648.94898 2.11538 2.11542 2.11538h4.13714c1.16644 0 2.1154-.9489 2.1154-2.11538v-1.77304c-.34127.16197-.7226.25284-1.12479.25284z"/><path d="m7.84064 2.71687h-2.47334v-.43031c.33739-.14341.5746-.47817.5746-.86733 0-.22162-.07952-.535636-.20259-.799988-.23832-.511805-.53358-.619242-.73929-.619242s-.50098.107414-.73934.619219c-.12309.264351-.20262.578391-.20262.800041 0 .38915.23726.72391.57469.86735v.43026h-2.47338c-1.16644 0-2.1154247.94901-2.1154247 2.11547v.90052c0 1.04594.8509687 1.89694 1.8969147 1.89694.62723 0 1.18406-.30624 1.52955-.77679.34554.47055.9024.77679 1.52961.77679.62723 0 1.18406-.30624 1.52957-.77679.34552.47055.90239.77679 1.52961.77679 1.04592 0 1.89686-.85097 1.89686-1.89694v-.90052c-.00002-1.16646-.94898-2.11547-2.11542-2.11547z"/></g></svg>