<svg fill="none" height="12" viewBox="0 0 9 12" width="9" xmlns="http://www.w3.org/2000/svg"><path d="m5.95489 1.05263-1.44361-.9624044c-.18045-.1203008-.48121-.1203008-.66166 0l-1.38345.9624044c-.42106.2406-.66166.66166-.66166 1.14286v.78195c-.3609 0-.6015.2406-.6015.60151 0 .30075.2406.54135.4812.6015l-.721804 4.51128-.06015.3609-.240602 1.74437h-.06015c-.360903 0-.601504.2406-.601504.6015s.240601.6015.601504.6015h.601506 6.01503.60151c.3609 0 .6015-.2406.6015-.6015s-.2406-.6015-.6015-.6015h-.06015l-.66166-4.39099-.1203-.7218-.2406-1.50376c.2406-.06015.4812-.30075.4812-.6015 0-.36091-.2406-.60151-.6015-.60151v-.78195c0-.4812-.2406-.90226-.66165-1.14286zm-2.94737 1.14286c0-.06015.06015-.18045.1203-.18045l1.08271-.72181 1.0827.72181c.06015.06015.1203.1203.1203.18045v.78195h-2.40601z" fill="#363636"/></svg>
