<svg fill="none" height="12" viewBox="0 0 9 12" width="9" xmlns="http://www.w3.org/2000/svg"><path d="m7.29667 7.20266c.76839-1.08748 1.09311-2.38448.91503-3.65262-.07553-.53644-.25598-1.05275-.53104-1.51946-.27507-.4667-.63937-.87465-1.0721-1.200565-.43274-.325911-.92542-.563395-1.44994-.698894-.52451-.13549952-1.07058-.1663593-1.60702-.0908178-2.25239.3165078-3.827651 2.4067668-3.5111431 4.6591568.1776101 1.26439.8474611 2.42038 1.8856731 3.25517.5767.46174 1.22732.78599 1.84461.93099.04668.01122.08728.03989.11347.08013.02618.04023.03595.08897.0273.13619l-.11426.61894c-.0166.08422-.00437.17158.03473.248.03173.06092.07957.11202.13832.14762s.12614.0544.19484.0544c.01751 0 .035-.0012.05232-.0038l.41787-.0586c.00996-.0014.0201.0004.02893.0053.00883.0048.01588.0123.02011.0214.39229.8519 1.0666 1.4981 1.92743 1.8385.04712.0187.09752.0275.14816.0262.05065-.0014.10049-.013.14653-.0342.04603-.0211.08731-.0514.12134-.0889.03403-.0376.06012-.0816.07668-.1295.0664-.1919-.03848-.4005-.22712-.4758-.58896-.2353-1.07985-.6647-1.39132-1.2172-.00394-.0067-.00617-.0142-.00649-.0219-.00033-.0078.00126-.0155.00463-.0224.00337-.007.00841-.01303.01467-.01758s.01355-.00748.02122-.00853l.17362-.02346c.09084-.01171.17462-.05518.2365-.12271.05006-.05601.08216-.12575.09216-.2002s-.00257-.1502-.03609-.21743l-.28295-.56849c-.02151-.04318-.02555-.09299-.01131-.13908s.04568-.08492.08779-.10845c.55348-.309 1.08983-.79772 1.51685-1.40141zm-3.63433.3937c-.04723 0-.09403-.00892-.13795-.02628-.96806-.3829-1.79018-1.23646-2.14564-2.22751-.01732-.04656-.02523-.09609-.02327-.14573.00196-.04963.01375-.09839.03469-.14343.02094-.04505.05061-.08549.0873-.11898.03668-.0335.07965-.05938.12641-.07614.04676-.01677.09638-.02409.14599-.02154.04961.00256.09822.01493.14301.0364.04479.02148.08488.05163.11793.08871s.05842.08036.07463.12731c.3402.94882 1.10906 1.54312 1.7151 1.78314.08127.03213.1488.0916.19092.16817.04213.07657.05622.16544.03985.25129-.01638.08585-.06219.16329-.12954.21898-.06736.05569-.15203.08613-.23943.08608z" fill="#8e8e8e"/></svg>