<svg fill="none" height="10" viewBox="0 0 12 10" width="12" xmlns="http://www.w3.org/2000/svg"><g fill="#444444"><path d="m9.02552 6.80481c-.31033.22655-.69691.47754-1.10596.68899.307.16985.76577.42661.9356.53745.26414.17264.60787.36248.48403-.33722-.05463-.3091-.17002-.60996-.31367-.88922z"/><path d="m11.3906 2.36273c-.3036.15192-.7515.41888-1.0588.54935-.247-.45874-.80759-.67354-1.50153-.58678-.59963.07484-.99302.46613-1.34904.71203-.31858.2199-1.13651.87413-1.86098 1.149-.79878.35654-1.52379.29963-2.02346.17494-.261-.06534-1.39891-.54975-.5745-2.17345.40519-.79826.35267-1.321641.19969-1.436321-.19969-.149813-.87412.337221-1.28632.674581-.41222-.26239-1.498875-.786987-1.73632-.736948-.2933204.061476-.2982189.917508.225 1.498668.449625.49966.84075.8411.87429 1.22414.12487 1.42385.44873 2.25989 1.17391 3.0727.506.56676 1.13667.91383 1.79653 1.10069.04041-.15649.07711-.30225.10538-.41519.0353-.14138.05709-.23182.05726-.23201l.20461.04988c-.13086.50371-.40343 1.53536-.49934 1.76948-.12804.31282-.25976.71571.42188.49195 1.15197-.37814 2.06667-1.39382 2.44075-2.61007l.16212.02548c-.05041.31209-.18352.64036-.37549.96141.32123-.07449.61296-.17513.85725-.29243.70516-.33847 1.37395-.82442 1.72366-1.12423 1.52395-1.32391 2.02345-2.37314 2.47305-3.07252.4498-.69953-.1635-.91748-.4496-.77435z"/></g></svg>
