<svg fill="none" height="12" viewBox="0 0 12 12" width="12" xmlns="http://www.w3.org/2000/svg"><path d="m11.7529 1.23874-7.04555 6.34809c-.13411.12085-.30942.18559-.48979.18086-.18038-.00472-.35207-.07855-.47968-.20625l-3.522787-3.52672c-.067292-.06507-.120967-.1429-.1578922-.22895-.0369251-.08606-.05636127-.17861-.0571742-.27227-.00081293-.09365.0170136-.18653.0524394-.27322.0354257-.08668.087741-.16543.153894-.23166s.144818-.1186.231406-.15407c.086587-.03546.179363-.05331.272914-.05249.09355.00081.186002.02027.271961.05723.085959.03697.163699.0907.228699.15807l3.05003 3.05344 6.55243-5.900206c.0683-.064128.1488-.113959.2366-.1465761.0879-.0326171.1814-.04736528.275-.0433814.0936.00398389.1855.0266197.2702.0665829.0848.0399636.1607.0964506.2234.1661576.0627.069706.1109.151231.1417.239804.0309.088573.0438.182414.0379.276032-.0058.093617-.0302.185131-.0718.269187-.0416.08405-.0995.15896-.1703.22034zm-.9427 3.18392-6.54883 5.90024-3.05003-3.05347c-.13288-.12849-.310857-.19958-.495589-.19798-.184733.00161-.361445.07579-.492075.20657-.130631.13077-.2047286.30768-.2063339.49262s.0694101.36311.1977509.49614l3.522787 3.52672c.12761.1277.2993.2015.47968.2063.18037.0047.35568-.0601.48979-.1809l7.04555-6.3481c.1346-.12625.2144-.3003.2223-.48479.0078-.18449-.057-.3647-.1804-.50193-.1234-.13722-.2956-.22053-.4797-.23201s-.3654.04976-.5049.17059z" fill="#8e8e8e"/></svg>