<svg fill="none" height="48" viewBox="0 0 48 48" width="48" xmlns="http://www.w3.org/2000/svg"><path clip-rule="evenodd" d="m24 0c1.3255 0 2.4 1.07451 2.4 2.39998v7.19992c0 1.3255-1.0745 2.4-2.4 2.4s-2.4-1.0745-2.4-2.4v-7.19992c0-1.32547 1.0745-2.39998 2.4-2.39998zm-16.97049 7.02937c.93726-.93725 2.45686-.93725 3.39409 0l5.0912 5.09113c.9373.9372.9373 2.4568 0 3.3941-.9373.9372-2.4569.9372-3.3941 0l-5.09119-5.0912c-.93726-.9372-.93726-2.45678 0-3.39403zm33.94109.00083c.9373.93725.9373 2.45683.0001 3.3941l-5.0912 5.0911c-.9372.9373-2.4568.9373-3.3941 0-.9372-.9372-.9372-2.4568 0-3.3941l5.0911-5.09108c.9373-.93726 2.4569-.93726 3.3941-.00002zm-40.9706 16.9696c0-1.3255 1.07452-2.4 2.4-2.4h7.2c1.3255 0 2.4 1.0745 2.4 2.4 0 1.3254-1.0745 2.3999-2.4 2.3999h-7.2c-1.32548 0-2.4-1.0745-2.4-2.3999zm36 .0012c0-1.3255 1.0745-2.4 2.4-2.4h7.2c1.3255 0 2.4 1.0745 2.4 2.4 0 1.3254-1.0745 2.3999-2.4 2.3999h-7.2c-1.3255 0-2.4-1.0745-2.4-2.3999zm-20.4853 8.4839c.9373.9372.9373 2.4568 0 3.394l-5.0912 5.0911c-.93722.9373-2.45681.9373-3.39407 0-.93725-.9373-.93724-2.4568.00002-3.3941l5.09115-5.091c.9373-.9373 2.4569-.9373 3.3941 0zm16.9705.0007c.9372-.9373 2.4568-.9373 3.3941 0l5.0911 5.0911c.9373.9372.9373 2.4568 0 3.394-.9372.9373-2.4568.9373-3.3941 0l-5.0911-5.091c-.9373-.9373-.9373-2.4569 0-3.3941zm-8.4857 3.5145c1.3255 0 2.4 1.0745 2.4 2.4v7.1999c0 1.3255-1.0745 2.4-2.4 2.4s-2.4-1.0745-2.4-2.4v-7.1999c0-1.3255 1.0745-2.4 2.4-2.4z" fill="#000" fill-rule="evenodd"/></svg>