<svg fill="none" height="12" viewBox="0 0 12 12" width="12" xmlns="http://www.w3.org/2000/svg"><path d="m11.7739 4.45069c-.0882-.26232-.3152-.45357-.5886-.49538l-3.18168-.48618-1.42913-3.044442c-.12187-.2595-.38231-.424688-.66843-.424688-.28632 0-.54657.165188-.66844.424688l-1.42931 3.044622-3.181692.48619c-.273375.04181-.500437.23288-.588375.49538-.0879375.2625-.0215625.55162.17175.75l2.323497 2.38256-.55031 3.37066c-.04537.279.07294.5595.30375.7227.23063.1631.53513.1796.78319.0427l2.83612-1.5684 2.83613 1.5684c.11194.0619.23512.0922.35775.0922.14925 0 .2985-.0453.42544-.1349.23081-.163.34893-.4435.30356-.7227l-.55031-3.37066 2.32369-2.38256c.1929-.19838.2593-.48751.1714-.75019z" fill="#8e8e8e"/></svg>