<svg fill="none" height="12" viewBox="0 0 12 12" width="12" xmlns="http://www.w3.org/2000/svg"><g clip-rule="evenodd" fill="#363636" fill-rule="evenodd"><path d="m11.9998 6.98852v-2.80298c0-.75187-.0395-1.39701-.1593-1.93608-.1213-.54589-.3328-1.01909-.7019-1.388215-.3691-.369126-.8423-.580617-1.38827-.701935-.53903-.1198065-1.1842-.15931-1.93605-.15931h-3.62874c-.75187 0-1.39701.0395035-1.93608.15931-.54589.121318-1.01909.332809-1.388215.701935-.369126.369125-.580617.842325-.701935 1.388215-.1198065.53907-.15931 1.18421-.15931 1.93608v3.62874c0 .75185.0395035 1.39702.15931 1.93605.121318.54597.332809 1.01917.701935 1.38827.369125.3691.842325.5806 1.388215.7019.53907.1198 1.18421.1593 1.93608.1593h3.62874c.75185 0 1.39702-.0395 1.93605-.1593.54597-.1213 1.01917-.3328 1.38827-.7019s.5806-.8423.7019-1.38827c.1198-.53903.1593-1.1842.1593-1.93605v-.79787c.0003-.0093.0003-.0186 0-.02789zm-10.66909-4.47873c-.09113.41004-.13073.95126-.13073 1.67575v1.27198c.43192-.41532.834-.7551 1.22335-1.00287.47179-.30021.95594-.48527 1.47796-.48527s1.00616.18506 1.47799.48527c.46589.29647.94997.72471 1.48162 1.25636l.97516.97517c.58997-.48635 1.16849-.82217 1.79116-.89975.41018-.05112.79698.01386 1.17258.16536v-1.76625c0-.72449-.0396-1.26571-.1307-1.67575-.0896-.40322-.2209-.64186-.379-.80003-.1582-.15817-.39685-.28944-.8001-.37905-.40998-.09113-.95123-.13073-1.67572-.13073h-3.62874c-.72449 0-1.26571.0396-1.67575.13073-.40322.08961-.64186.22088-.80003.37905s-.28944.39681-.37905.80003z"/><path d="m7.19995 3.59995c0-.66274.53723-1.19999 1.19998-1.19999s1.19999.53725 1.19999 1.19999c0 .66273-.53724 1.19998-1.19999 1.19998s-1.19998-.53725-1.19998-1.19998z"/></g></svg>
