<svg fill="none" height="20" viewBox="0 0 20 20" width="20" xmlns="http://www.w3.org/2000/svg"><path d="m8 0c4.4183 0 8 3.58172 8 8 0 1.8115-.6021 3.4824-1.6171 4.8234l-.0631.0821 5.3873 5.3874c.3866.3866.3905 1.011.0116 1.4024l-.0116.0118c-.3905.3905-1.0237.3905-1.4142 0l-5.3873-5.3874-.0822.0632c-1.3083.9903-2.93059 1.5875-4.69112 1.616l-.13228.0011c-4.41828 0-8-3.5817-8-8 0-4.41828 3.58172-8 8-8zm0 2c-3.31372 0-6 2.68628-6 6 0 3.3137 2.68628 6 6 6 3.3137 0 6-2.6863 6-6 0-3.31372-2.6863-6-6-6z" fill="#363636"/></svg>
