<svg fill="none" height="12" viewBox="0 0 10 12" width="10" xmlns="http://www.w3.org/2000/svg"><path d="m9.2 0h-1.85c-.14587 0-.28576.0579463-.38891.161091-.10314.103145-.16109.24304-.16109.388909s.05795.285764.16109.388909c.10315.103141.24304.161091.38891.161091h.52225l-.9275.92725c-.3702-.4321-.82956-.77893-1.34651-1.01667-.51695-.237741-1.07924-.360751-1.64824-.36058-2.178 0-3.95 1.772-3.95 3.95 0 1.9915 1.4815 3.643 3.4 3.9115v.9385h-.7c-.14587 0-.28576.05795-.38891.16109-.10314.10315-.16109.24304-.16109.38891 0 .1459.05795.2858.16109.3889.10315.1032.24304.1611.38891.1611h.7v.9c0 .1459.05795.2858.16109.3889.10315.1032.24304.1611.38891.1611s.28576-.0579.38891-.1611c.10314-.1031.16109-.243.16109-.3889v-.9h.7c.14587 0 .28576-.0579.38891-.1611.10314-.1031.16109-.243.16109-.3889 0-.14587-.05795-.28576-.16109-.38891-.10315-.10314-.24304-.16109-.38891-.16109h-.7v-.9385c1.9185-.2685 3.4-1.92 3.4-3.9115.00029-.55976-.11905-1.11311-.35-1.623l1.1-1.1v.523c0 .14587.05795.28576.16109.38891.10315.10314.24304.16109.38891.16109s.28576-.05795.38891-.16109c.10314-.10315.16109-.24304.16109-.38891v-1.85c0-.145869-.05795-.285764-.16109-.388909-.10315-.1031447-.24304-.161091-.38891-.161091zm-5.25 7.45c-.56368 0-1.1147-.16715-1.58338-.48031s-.83397-.75827-1.04968-1.27904-.27215-1.09381-.16218-1.64666c.10997-.55284.38141-1.06066.77999-1.45924s.9064-.67002 1.45924-.77999c.55285-.10997 1.12589-.05353 1.64666.16218s.96588.581 1.27904 1.04968.48031 1.0197.48031 1.58338c-.00086.7556-.3014 1.48001-.8357 2.0143-.53429.5343-1.2587.83484-2.0143.8357z" fill="#8e8e8e"/></svg>