<svg enable-background="new 0 0 64 64" height="800" viewBox="0 0 64 64" width="800" xmlns="http://www.w3.org/2000/svg"><path d="m62.799 23.737c-.47-1.399-1.681-2.419-3.139-2.642l-16.969-2.593-7.622-16.237c-.65-1.384-2.039-2.265-3.565-2.265-1.527 0-2.915.881-3.565 2.265l-7.623 16.238-16.969 2.593c-1.458.223-2.669 1.242-3.138 2.642s-.115 2.942.916 4l12.392 12.707-2.935 17.977c-.242 1.488.389 2.984 1.62 3.854 1.23.87 2.854.958 4.177.228l15.126-8.365 15.126 8.365c.597.33 1.254.492 1.908.492.796 0 1.592-.242 2.269-.72 1.231-.869 1.861-2.365 1.619-3.854l-2.935-17.977 12.393-12.707c1.029-1.058 1.383-2.6.914-4.001z" fill="#fafafa"/></svg>
