<svg fill="none" height="11" viewBox="0 0 12 11" width="12" xmlns="http://www.w3.org/2000/svg"><g clip-rule="evenodd" fill="#363636" fill-rule="evenodd"><path d="m5.99972 4.99994c.66275 0 1.19999.53723 1.19999 1.19998 0 .66276-.53724 1.19999-1.19999 1.19999s-1.19998-.53723-1.19998-1.19999c0-.66275.53723-1.19998 1.19998-1.19998z"/><path d="m.00003295 4.10229c0 .02011.00006065.04043.00006065.06095v3.87612c-.00006.53189-.00006005.99017.0492593 1.35718.0528591.3933.1721371.77026.4778941 1.07606.305816.3058.682853.4251 1.076143.4779.36696.0494.82529.0493 1.35719.0493h6.07886c.53189 0 .99016.0001 1.35716-.0493.3933-.0528.7703-.1721 1.0761-.4779s.4251-.68276.4779-1.07606c.0494-.36701.0494-.82529.0493-1.35718v-3.87612c0-.02052 0-.04084.0001-.06095.0002-.27668.0005-.5152-.0507-.72639-.1588-.65507-.6703-1.16653-1.3253-1.32531-.2112-.05119-.4498-.05096-.72643-.0507-.02012.00003-.04043.00005-.06095.00005-.20777 0-.24961-.00157-.28339-.00663-.13687-.02052-.26244-.08772-.35544-.19023-.02295-.0253-.04746-.05924-.1627-.23211l-.1359-.20385c-.01373-.0206-.02733-.04105-.04081-.06133-.19665-.29583-.3701-.556748-.61625-.742536-.1489-.11239-.31437-.200943-.49048-.262496-.29112-.101753-.60445-.101339-.95964-.100865-.02436.000036-.04896.000066-.07368.000066h-1.43668c-.02472 0-.04932-.00003-.07368-.000066-.3552-.000474-.66851-.000888-.95963.100865-.1761.061553-.34158.150106-.49049.262496-.24612.185788-.41958.446716-.61626.742536-.01344.02028-.02705.04074-.04079.06133l-.1359.20385c-.11526.17287-.13974.20681-.16272.23211-.093.10251-.21858.16971-.35544.19023-.03378.00506-.0756.00663-.28337.00663-.02052 0-.04086-.00002-.06096-.00005-.27666-.00026-.51522-.00049-.72635.0507-.655076.15878-1.166569.67024-1.3253269 1.32531-.05117938.21119-.05094015.44971-.05070015.72639zm8.39985705 2.09761c0-1.32544-1.07451-2.39997-2.39999-2.39997-1.32544 0-2.39997 1.07453-2.39997 2.39997 0 1.32545 1.07453 2.39997 2.39997 2.39997 1.32548 0 2.39999-1.07452 2.39999-2.39997z"/></g></svg>
