<svg fill="none" height="12" viewBox="0 0 14 12" width="14" xmlns="http://www.w3.org/2000/svg"><path d="m11.9085 4.71595c.1972-.91872-.5854-1.58765-.5854-1.58765s-.4904.63466-.6236 1.35468c-.1615.87334-1.5114 1.41633-3.73596.668 0 0-4.28342-1.44094-5.15262-1.73334-.869018-.29233-.882363 2.99288 2.31472 4.21219.24625.09394.486.16688.72.22337.27217.55464.7323 1.23594 1.51286 1.8797.30138.22715 1.37273-1.40254-.08081-3.27282l.07547-.03073c.53783.46555.85892.948 1.03507 1.39746 1.40166-.37724 2.35759-1.25026 2.74887-1.50512.6451-.42035 1.1101-.34732 1.8039-.20429.8897.18335 1.4016-.33964 1.4016-.33964s-.7126-.87709-1.4341-1.06181z" fill="#363636"/></svg>
