<svg fill="none" height="12" viewBox="0 0 12 12" width="12" xmlns="http://www.w3.org/2000/svg"><path d="m6 0c-1.18669 0-2.34672.351894-3.33342 1.01118-.98669.65929-1.755729 1.59636-2.209855 2.69272-.4541253 1.09635-.572945 2.30275-.341434 3.46664s.802956 2.23298 1.642069 3.07206c.83912.8392 1.90821 1.4106 3.0721 1.6421s2.37029.1127 3.46664-.3414c1.09636-.4542 2.0334-1.2232 2.6927-2.20988.6593-.9867 1.0112-2.14673 1.0112-3.33342 0-.78793-.1552-1.56815-.4567-2.2961-.3015-.72796-.7435-1.38939-1.3007-1.94654-.55711-.55715-1.21854-.999109-1.9465-1.300637-.72795-.301528-1.50817-.456723-2.2961-.456723zm1.53 8.298c-.09662.06767-.21204.10335-.33.102-.09882-.00051-.19599-.02543-.28287-.07253s-.16078-.11494-.21513-.19747l-1.2-1.8c-.06561-.09763-.10108-.21238-.102-.33v-3c0-.15913.06322-.31174.17574-.42426.11252-.11253.26513-.17574.42426-.17574s.31174.06321.42427.17574c.11252.11252.17573.26513.17573.42426v2.82l1.098 1.65c.08684.13228.11791.2935.08644.44858-.03146.15508-.12291.29144-.25444.37942z" fill="#363636"/></svg>
