<svg fill="none" height="64" viewBox="0 0 64 64" width="64" xmlns="http://www.w3.org/2000/svg"><path d="m24.9141.0639038c-3.1032.0007198-4.4302.0175137-5.6673.1017652l-.0862.005988c-.0144.001017-.0287.002042-.043.003077l-.086.006324c-.0144.001073-.0287.002155-.043.003247l-.1292.01009c-.0432.003451-.0864.006991-.1298.010622-1.9889.166273-3.4986.530065-4.8819 1.251183-2.3491 1.22472-4.25891 3.17898-5.45571 5.58258-.70479 1.41527-1.06036 2.96013-1.22288 4.99532-.00946.1185-.01829.2357-.02653.353l-.00607.088c-.08643 1.2773-.10419 2.6075-.10534 5.7772v.2215.113 42.1557c0 2.4522 2.5889 3.9895 4.66963 2.7729l20.2992-11.8691 20.2992 11.8691c2.0598 1.2044 4.6178-.2903 4.6688-2.6996l.0008-.0733v-42.3802c-.0008-3.1752-.0172-4.5331-.0995-5.799l-.0059-.0882c-.001-.0147-.002-.0293-.003-.044l-.0062-.088c-.0021-.0293-.0042-.0586-.0064-.088l-.0066-.0882c-.0011-.0147-.0023-.0294-.0034-.0442l-.007-.0886c-.1625-2.03516-.518-3.57999-1.2228-4.99524-1.1969-2.40368-3.1068-4.35792-5.4558-5.58265-1.3832-.721112-2.8929-1.084916-4.8819-1.251194l-.0866-.00714c-.0144-.001171-.0288-.002331-.0432-.003481l-.0862-.006785c-.0286-.002223-.0573-.004406-.086-.006552l-.086-.006324c-.0143-.001035-.0286-.002061-.043-.003077l-.0862-.005988c-1.2371-.0842511-2.5641-.1010453-5.6673-.1017652zm-.0898 6.3872562h14.3513c3.1321.00111 4.3175.02033 5.4416.10815l.0724.00576c.0242.00196.0483.00394.0724.00596 1.2453.10411 1.9991.28574 2.5563.57624 1.1745.61237 2.1294 1.58948 2.7279 2.79133.2839.5701.4614 1.3414.5632 2.6156.0019.0247.0039.0494.0058.0741l.0056.0741c.0858 1.1502.1046 2.3632.1058 5.568v36.969l-17.1781-10.0442c-.9455-.5528-2.1029-.5609-3.0546-.0243l-.0424.0243-17.1781 10.0442v-36.8649c.0007-3.1431.0174-4.4014.095-5.5232l.0053-.0746c.0053-.0744.011-.1484.0169-.2225.1017-1.2742.2792-2.0454.5632-2.61569.5985-1.20187 1.5533-2.17891 2.7277-2.79118.5573-.29056 1.3111-.47219 2.5564-.5763.0241-.00202.0482-.004.0724-.00596l.0724-.00576.0727-.00557.0729-.00538c1.084-.07849 2.2986-.09614 5.296-.0972z" fill="#000"/></svg>
