<svg fill="none" height="64" viewBox="0 0 64 64" width="64" xmlns="http://www.w3.org/2000/svg"><path d="m43.5103.029068c1.5958 0 2.8894 1.301262 2.8894 2.906452v2.91174l.0185.00016c1.5247.00975 2.39.03514 3.2395.09543l.0796.00576c.0928.00683.1857.01409.2796.0218 1.8412.15132 3.2389.4824 4.5195 1.13868 2.1748 1.1146 3.9428 2.89311 5.0508 5.08061.6525 1.288.9817 2.694 1.1321 4.5461.0022.027.0044.0539.0065.0807l.0062.0804c.0072.0936.0139.1868.0202.2804l.0054.0804c.0008.0134.0017.0268.0025.0403l.0051.0809c.0673 1.1092.0812 2.3608.0818 5.1162v24.8228c-.0006 2.8898-.0158 4.1255-.0921 5.2776l-.0054.0802c-.0009.0134-.0018.0267-.0028.0401l-.0057.0801c-.0049.0667-.0099.1334-.0152.2005l-.0065.0807c-.1504 1.8521-.4796 3.258-1.132 4.546-1.1081 2.1877-2.8761 3.9661-5.0509 5.0807-1.2806.6563-2.6783.9874-4.5195 1.1387-.0268.0022-.0536.0044-.0802.0065l-.0799.0063c-.0133.001-.0266.002-.0399.003l-.1194.0089c-.0796.0058-.1593.0112-.2395.0164l-.0805.005-.0809.0049c-1.0698.0627-2.3016.0765-4.9058.0774h-.2004-.1022-24.2715c-.0343 0-.0684 0-.1022 0h-.2005c-2.8678-.001-4.0713-.0176-5.2269-.0981l-.0797-.0056c-.1061-.0077-.2122-.0159-.3194-.0247-1.8413-.1513-3.2391-.4825-4.51939-1.1387-2.17484-1.1146-3.94297-2.893-5.0511-5.0807-.65239-1.288-.98154-2.6939-1.13198-4.546-.00328-.0405-.00648-.0807-.00961-.1209l-.00912-.1203c-.00099-.0134-.00197-.0267-.00294-.0401l-.00572-.08c-.00094-.0134-.00187-.0267-.00279-.0401l-.00542-.0803c-.07622-1.152-.09142-2.3877-.09207-5.2775v-24.8228c.00062-2.7554.01447-4.007.08183-5.1162l.00502-.0809c.00086-.0134.00172-.0269.00259-.0403l.00532-.0804c.00993-.1471.02087-.2932.03291-.4415.15045-1.8521.4796-3.258 1.13203-4.546 1.10809-2.1876 2.87622-3.9661 5.05097-5.0807 1.28047-.65627 2.67817-.98736 4.51947-1.13869.0938-.00771.1868-.01497.2796-.0218l.0796-.00576.0797-.00555c.8245-.05631 1.6828-.08043 3.1598-.08988l.0184-.00016v-2.91174c0-1.58914 1.2679-2.8803964 2.8417-2.906452h.0478c1.5958 0 2.8895 1.301262 2.8895 2.906452v2.90642h17.3367v-2.90642c0-1.58914 1.2679-2.8803964 2.8417-2.906452zm11.5578 29.064532h-46.23137v18.3079c.00104 2.7913.017 3.9223.08802 4.9318l.00487.0679.00504.0676.00521.0675c.00177.0225.00357.045.00539.0674.09419 1.1597.25853 1.8616.52137 2.3806.55397 1.0937 1.43797 1.9828 2.52557 2.5402.5158.2643 1.2136.4296 2.3664.5244.0671.0055.134.0107.2014.0157l.0675.0049c1.0149.0723 2.1533.0879 4.9971.0885h24.6557c3.0966-.0007 4.1711-.0191 5.2659-.1091 1.1529-.0948 1.8507-.2601 2.3667-.5245 1.0874-.5573 1.9713-1.4463 2.5253-2.5401.2629-.519.4272-1.221.5214-2.3806.0036-.0449.0072-.0899.0106-.1349l.005-.0676c.0752-1.0274.0919-2.1457.0929-4.9997zm-14.4473-17.4387h-17.3367v2.9064c0 1.5891-1.268 2.8804-2.8417 2.9061l-.0478.0004c-1.5958 0-2.8895-1.3013-2.8895-2.9065v-2.9009l-.0222.0002c-1.4613.01-2.2405.0352-2.9902.0927l-.0671.0053c-.0223.0018-.0446.0036-.067.0054-1.1528.0948-1.8507.26-2.3665.5244-1.0874.5573-1.9714 1.4466-2.52548 2.5404-.26284.5188-.42717 1.2207-.52136 2.3804-.00182.0225-.00362.0449-.00539.0674l-.00521.0675c-.07946 1.0467-.09685 2.1506-.09793 5.0673v.8692h46.23137v-.8692c-.001-2.9167-.0184-4.0206-.0979-5.0673l-.0052-.0675c-.0018-.0225-.0036-.0449-.0054-.0674-.0942-1.1596-.2585-1.8615-.5215-2.3805-.554-1.0938-1.4379-1.983-2.5252-2.5402-.5159-.2644-1.2138-.4297-2.3666-.5245-.0224-.0018-.0447-.0036-.0671-.0054l-.067-.0053c-.7497-.0575-1.5289-.0827-2.9902-.0927l-.0223-.0002v2.9009c0 1.5891-1.2679 2.8804-2.8416 2.9061l-.0478.0004c-1.5958 0-2.8895-1.3013-2.8895-2.9065z" fill="#000"/></svg>
