<svg fill="none" height="64" viewBox="0 0 64 64" width="64" xmlns="http://www.w3.org/2000/svg" xmlns:xlink="http://www.w3.org/1999/xlink"><path clip-rule="evenodd" d="m63.3663 22.58c-1.556-8.667-6.0246-16.51296-12.0093-20.07099-6.0245-3.55803-13.5253-2.873798-19.5499-.77547-5.7555 1.97412-10.1088 5.25611-14.9052 8.87216-.191.144-.3826.2885-.5751.4335-.0724.0534-.1449.1069-.2175.1605-5.0086 3.6965-10.47969 7.7343-13.54726 14.254-3.112023 6.5687-3.75039 15.6463.1197 20.2535 2.40346 2.832 6.51046 3.9577 11.07926 5.2099 2.8637.7849 5.9089 1.6195 8.8297 2.9553 2.7982 1.2628 5.4768 2.9856 8.0679 4.6521 4.4285 2.8483 8.6014 5.5321 12.679 5.4746 6.4634-.0456 12.6875-6.9792 16.4778-15.1901 3.7504-8.1652 5.1069-17.6077 3.5509-26.229zm-12.991-.1907c1.2376.4689 2.64 1.0003 3.4993 1.7567.5066.4459.7287 1.1369.5654 1.7605-.1039.3973-.4527 1.0997-1.6206 1.3405-.0722.0148-.1457.0223-.2191.0223-.0506 0-.1012-.0035-.1516-.0107-1.3072-.1843-2.8752-.2858-4.4148-.2858-1.8846 0-3.6886.1522-5.2603.4421-.4541 1.1726-1.2656 2.6562-2.7017 3.9725-.7183.6584-1.1824.9927-1.7261.9927-.3916 0-.757-.1916-.9775-.5125-.4249-.6188-.1782-1.2809.2308-2.3777l.0536-.1438c-3.0791 1.9349-7.0883 5.299-9.2773 8.0982 1.8143 1.4061 2.6749 3.9495 2.0377 6.4245-.1049.4079-.4313.7198-.8411.8036-.0725.0149-.1454.0222-.2177.0222-.3359 0-.6583-.1565-.8677-.4317-.6039-.7937-1.8182-1.7908-3.4154-2.2088-.5299-.1387-1.0852-.2089-1.6506-.2089-.8607 0-1.7129.1649-2.3997.4643-.1397.0609-.2873.0907-.4341.0907-.2563 0-.5098-.0909-.7116-.2652-.3175-.2742-.4522-.7067-.3472-1.1146.5918-2.2981 2.3111-4.0173 4.3879-4.5208-.4737-2.4349-.1676-5.1607.9055-7.967.994-2.5994 2.5665-5.0495 4.483-7.0053-.4959-.1911-1.1725-.3835-1.6074-.5072-1.5939-.4532-2.7454-.7807-2.7483-1.9358-.0029-1.1664 1.361-1.5617 2.176-1.7979h.0001c1.3557-.3927 2.767-.5918 4.1946-.5918 2.2637 0 4.0224.4999 4.8346.7822 1.5146-.382 3.0621-.5831 4.4965-.5831 4.2848 0 7.255 1.7566 8.4004 4.9555.2858.1464.8743.3695 1.324.5399z" fill="#fff" fill-rule="evenodd"/></svg>
