<svg fill="none" height="64" viewBox="0 0 64 64" width="64" xmlns="http://www.w3.org/2000/svg"><path d="m7.28813 7.53232c4.13267-3.54951 9.15917-5.04139 14.21787-4.37935 3.7974.49697 7.417 2.1891 10.4242 4.82214l.0488.04301.0471-.04152c2.9613-2.59571 6.5069-4.26701 10.2409-4.78033l.1437-.01917c5.0218-.64954 10.0386.82753 14.2302 4.32959 8.5393 7.13461 9.7785 19.43691 3.028 28.16911-2.2529 2.9142-6.5104 7.2842-12.253 12.7329-3.9592 3.7565-8.1563 7.5837-11.9915 10.9979-.3213.2862-.4865.4309-.6472.5597l-.0321.0256c-.0429.0339-.0861.0673-.1327.1025-.4308.326-.8638.5665-1.3843.7227-.812.2439-1.6849.2438-2.4968.0001-.5206-.1563-.9536-.3968-1.3844-.7228-.0466-.0352-.0898-.0686-.1327-.1025l-.0321-.0256c-.1607-.1287-.3257-.2734-.6468-.5593-3.8342-3.4133-8.0325-7.2416-11.9919-10.9983-5.7425-5.4487-10.00001-9.8187-12.25294-12.7329-6.70875-8.6779-5.43051-20.9045 2.99767-28.14348zm13.46677 1.42013c-3.4297-.44885-6.8092.55421-9.6874 3.02635-6.07126 5.2145-6.9797 13.9039-2.18319 20.1083 2.01059 2.6007 6.12419 6.8231 11.65259 12.0685 3.7484 3.5566 7.7248 7.1882 11.3899 10.458l.0529.0471.0533-.0476c3.5879-3.2009 7.4721-6.7468 11.1499-10.2304l.2395-.2271c5.5285-5.2455 9.6421-9.4678 11.6526-12.0685 4.8362-6.2558 3.9576-14.9773-2.1529-20.0827-2.9525-2.4668-6.3543-3.46837-9.7689-3.0267-3.3313.4309-6.5249 2.2283-8.9628 5.0934-1.1611 1.3646-3.26 1.3646-4.4212.0001-2.4381-2.8653-5.6642-4.68031-9.0143-5.11875z" fill="#fff"/></svg>
