<svg fill="none" height="64" viewBox="0 0 64 64" width="64" xmlns="http://www.w3.org/2000/svg" xmlns:xlink="http://www.w3.org/1999/xlink"><path d="m25.6128.0638733c1.7638 0 3.1936 1.4298267 3.1936 3.1936167 0 1.76378-1.4298 3.19361-3.1936 3.19361l-7.2383.00002c-3.4225.00077-4.6102.02104-5.8203.1199-1.2742.10411-2.0455.28574-2.61561.57625-1.20184.61236-2.17895 1.58947-2.79132 2.79133-.2905.5701-.47213 1.3414-.57624 2.6156-.00404.0494-.00794.0988-.01172.1482l-.00557.0743c-.08307 1.129-.10149 2.3578-.10258 5.4937v27.4592c.00116 3.3427.02201 4.5185.11987 5.7162.10411 1.2742.28574 2.0455.57625 2.6157.61232 1.2018 1.58936 2.1788 2.79139 2.7912.57013.2905 1.34133.4722 2.61553.5763.0247.002.0494.004.0741.0059l.0741.0058.0743.0056c1.1166.0821 2.3308.1011 5.391.1025l.3123.0001h.1068 26.8264.1069l.3122-.0001c3.0262-.0014 4.2472-.02 5.3537-.0998l.1116-.0083.0741-.0058c.0247-.0019.0494-.0039.0741-.0059 1.2742-.1041 2.0455-.2858 2.6158-.5764 1.2018-.6123 2.1787-1.5892 2.7911-2.791.2905-.5703.4722-1.3416.5763-2.6158.002-.0247.004-.0494.0059-.0741l.0058-.0741c.0878-1.1502.107-2.3631.1082-5.568v-7.3424c0-1.7638 1.4298-3.1936 3.1936-3.1936s3.1936 1.4298 3.1936 3.1936v7.2505c-.0007 3.1753-.0175 4.5331-.1018 5.799l-.006.0882c-.001.0147-.002.0294-.003.044l-.0064.088c-.0032.044-.0065.088-.0099.1321l-.0069.0883c-.0023.0295-.0047.059-.0071.0886-.1663 2.0351-.5301 3.58-1.2512 4.9952-1.2247 2.4038-3.1789 4.358-5.5826 5.5827-1.4153.7211-2.9602 1.0849-4.9952 1.2512-.0741.006-.1477.0118-.2211.0174l-.088.0065c-.1026.0076-.2052.0146-.3087.0212l-.0889.0056-.0895.0053c-1.1823.069-2.5438.0841-5.4221.0851h-27.4954c-3.2061-.0012-4.5303-.0197-5.8212-.1108l-.088-.0064c-.1026-.0075-.2053-.0154-.309-.0239-2.0352-.1663-3.58005-.5301-4.99516-1.2512-2.40376-1.2247-4.35802-3.1789-5.58279-5.5827-.721068-1.4153-1.08486-2.9601-1.251133-4.9952-.013312-.1629-.025404-.3234-.036382-.4851l-.005878-.0883c-.000962-.0147-.001914-.0295-.002857-.0443l-.005555-.0889c-.0744549-1.2187-.0897548-2.594-.0904412-5.6216v-27.2754c.0007199-3.1752.0175141-4.5331.1017652-5.799l.005988-.0882c.001016-.0147.002042-.0293.003077-.044l.006324-.088c.00751-.1026.015487-.2053.023958-.309.166278-2.03517.530082-3.58 1.251194-4.99524 1.22473-2.40369 3.17897-4.35793 5.58264-5.58265 1.41526-.721118 2.96009-1.084922 4.99525-1.2512.1481-.012101.2942-.023194.441-.033359l.0882-.005988c.0147-.00098.0295-.00195.0442-.002912l.0887-.005661c1.2151-.0759045 2.5686-.0921108 5.5561-.0932167zm35.1297.000032c.0177 0 .0353-.0000001.0528.0004278l.0205.0004983.0248.0005705c.0163.0004989.0327.0011224.049.0018707l.0037.0002414.007.0002222.0212.0013106.0171.000845.0061.0004006.0078.0004059.0257.0018935.0093.0006674.0026.000195.0143.0010377.0274.0025071.0046.000376.0031.0002946.0167.0014411c.3095.0301743.6061.1045443.8834.2167193l.0033.001433.0014.00049.0097.004108.0316.013014c.0153.006464.0305.013044.0457.019738l.0017.000781.0031.001271c.2891.127961.5631.300946.8114.518953l.0086.007776.0018.001499.0082.007411.0203.018111.005.004692.003.002569c.012.01102.024.022131.0359.033332l.0162.015548.0166.015697.0026.002602c.0236.02279.0467.045905.0695.069375l.0015.00181.0011.0009c.0122.01263.0243.02533.0363.0381l.0177.01944.0106.01119.0022.00251.005.00541.013.01471.0125.01386.0047.0055.0046.00492c.2295.26134.4091.55119.5388.85716l.0017.00412c.1489.35207.2365.73574.2495 1.13824l.0002.0061v.00125c.0005.01634.0009.03269.0012.04903l.0003.02761v.02143 19.16168c0 1.7638-1.4298 3.1936-3.1936 3.1936s-3.1936-1.4298-3.1936-3.1936l-.0001-11.4517-23.2906 23.2907c-1.2347 1.2347-3.2289 1.2471-4.4788.0371l-.0376-.0371c-1.2472-1.2472-1.2472-3.2692 0-4.5164l23.2906-23.29067h-11.4516c-1.7461 0-3.1649-1.40137-3.1931-3.1408l-.0005-.05281c0-1.76379 1.4299-3.1936147 3.1936-3.1936147z" fill="#fff"/></svg>
