<svg fill="none" height="64" viewBox="0 0 64 64" width="64" xmlns="http://www.w3.org/2000/svg" xmlns:xlink="http://www.w3.org/1999/xlink"><path d="m32.0013 0c-17.6679 0-32.0013 14.3147-32.0013 31.9832 0 17.6853 14.3334 32.0168 32.0012 32.0168 17.6776 0 31.9988-14.3316 31.9988-32.0168.0002-17.6685-14.3212-31.9832-31.9987-31.9832zm2.2804 49.7889c-.7432.6614-1.6046.9938-2.5803.9938-1.0096 0-1.8902-.3265-2.6419-.9807-.7529-.6529-1.1301-1.5671-1.1301-2.7418 0-1.0419.3651-1.919 1.0927-2.6297.7277-.7108 1.6204-1.0662 2.6793-1.0662 1.042 0 1.9191.3554 2.631 1.0662.7108.7107 1.0674 1.5876 1.0674 2.6297-.0013 1.1578-.3736 2.0674-1.1181 2.7287zm9.2677-22.9749c-.5711 1.0589-1.2492 1.972-2.0359 2.7418-.7843.7698-2.1949 2.0636-4.2309 3.8825-.5614.5132-1.0131.9638-1.3516 1.3516-.3385.3892-.5915.7444-.7566 1.0673-.1663.3228-.2939.6457-.3843.9685-.0904.3216-.2265.889-.4108 1.6997-.3132 1.7203-1.2974 2.5802-2.9515 2.5802-.8602 0-1.583-.2806-2.1721-.8432-.5867-.5626-.8794-1.3974-.8794-2.5056 0-1.3889.2156-2.5924.6457-3.6102.4277-1.018.9999-1.9106 1.7107-2.6803.712-.7698 1.6709-1.683 2.8792-2.7418 1.0589-.9264 1.8239-1.625 2.2949-2.0962.4722-.4721.8686-.9973 1.1902-1.5756.3241-.5794.4832-1.2071.4832-1.8852 0-1.3239-.4903-2.4394-1.4757-3.3488-.9842-.9095-2.254-1.3649-3.8093-1.3649-1.8202 0-3.1598.4589-4.02 1.3769-.8602.9179-1.5865 2.2695-2.1829 4.056-.5638 1.8696-1.6311 2.8043-3.2009 2.8043-.9264 0-1.7082-.3264-2.3455-.9794-.6361-.653-.9541-1.36-.9541-2.1213 0-1.5709.5048-3.1634 1.5132-4.7764 1.0095-1.613 2.4816-2.949 4.4175-4.0067 1.9346-1.0589 4.1935-1.589 6.7727-1.589 2.3986 0 4.5152.4433 6.3511 1.3288 1.836.8841 3.255 2.0876 4.2562 3.6102.9999 1.5214 1.501 3.1754 1.501 4.962.0023 1.4035-.2831 2.636-.8541 3.6948z" fill="#777"/></svg>
