<svg fill="none" height="64" viewBox="0 0 64 64" width="64" xmlns="http://www.w3.org/2000/svg"><path d="m62.8694 20.3062c-1.5714-1.3509-4.1363-2.2999-6.3995-3.1374-.8223-.3043-1.8984-.7026-2.4209-.9641-2.0945-5.7124-7.5256-8.84909-15.3607-8.84909-2.623 0-5.4526.35906-8.2222 1.04124-1.4851-.50417-4.7012-1.39685-8.8404-1.39685-2.6106 0-5.1912.35561-7.6702 1.0568-1.4903.42177-3.98437 1.12758-3.97907 3.2106.0052 2.0628 2.11087 2.6475 5.02547 3.4568.7952.2208 2.0325.5644 2.9392.9057-3.5044 3.4926-6.38 7.8676-8.19757 12.5094-1.96211 5.0114-2.52191 9.8788-1.65571 14.2269-3.79762.8991-6.94144 3.969-8.0235483 8.0729-.1921017.7283.0542003 1.5007.6348043 1.9902.369104.3113.832504.4736 1.301304.4736.26831 0 .53831-.0532.79371-.1619 1.25581-.5347 2.81422-.8292 4.38813-.8292 1.0337 0 2.04911.1255 3.01808.3732 2.9208.7463 5.1412 2.5268 6.2455 3.9441.3828.4916.9724.7709 1.5866.7709.1321 0 .2654-.013.398-.0395.7493-.1497 1.3462-.7066 1.5381-1.4351 1.165-4.4196-.4085-8.9615-3.7261-11.4722 4.0027-4.9986 11.3337-11.0059 16.9642-14.4612-.0334.0874-.0661.1732-.0981.2567-.7478 1.9588-1.199 3.141-.4219 4.2459.4031.5731 1.0713.9153 1.7873.9153.9942 0 1.8428-.597 3.1563-1.7727 2.626-2.3505 4.1099-4.9997 4.9402-7.0936 2.874-.5178 6.1729-.7896 9.619-.7896 2.8152 0 5.6824.1813 8.0727.5104.0921.0127.1846.019.2771.019.1343 0 .2686-.0133.4007-.0398 2.1356-.4299 2.7735-1.6843 2.9634-2.3937.2986-1.1135-.1074-2.3475-1.0339-3.1437z" fill="#363636"/></svg>
