<svg fill="none" height="64" viewBox="0 0 64 64" width="64" xmlns="http://www.w3.org/2000/svg" xmlns:xlink="http://www.w3.org/1999/xlink"><path d="m32 .029068c17.657 0 31.9709 14.313932 31.9709 31.970932 0 17.6569-14.314 31.9709-31.9709 31.9709-17.657 0-31.9709473-14.3139-31.9709473-31.9709 0-17.6571 14.3138473-31.970932 31.9709473-31.970932zm.0291 42.201632c-1.6373 0-2.9646 1.3273-2.9646 2.9646s1.3273 2.9646 2.9646 2.9646c1.6372 0 2.9645-1.3273 2.9645-2.9646s-1.3273-2.9646-2.9645-2.9646zm1.7039-27.515c-2.7061-.4642-5.4889.0443-7.856 1.4354s-4.1654 3.5751-5.0765 6.1651c-.5327 1.5142.263 3.1736 1.7772 3.7062 1.4991.5274 3.1404-.2473 3.69-1.7321l.0163-.0452c.4555-1.2949 1.3547-2.3869 2.5383-3.0824 1.1835-.6956 2.5749-.9499 3.928-.7178 1.353.2321 2.5801.9355 3.4643 1.9858.884 1.0502 1.3679 2.3795 1.3658 3.7519 0 1.3713-1.0661 2.7928-3.0655 4.1257-.8046.5365-1.6845 1.0057-2.5654 1.3972-.2843.1264-.5478.2353-.7837.3263l-.0583.0224c-.0524.0199-.1003.0378-.1434.0536l-.1157.0414c-1.5228.5076-2.3458 2.1535-1.8382 3.6764.5025 1.5075 2.1208 2.3292 3.6307 1.853l.0457-.0148c.0262-.0088.0616-.0209.1056-.0363l.0469-.0166c.0999-.0355.2128-.0771.3377-.1246.3457-.1317.7262-.2878 1.1335-.4689 1.1626-.5167 2.3264-1.1373 3.4291-1.8725 1.4805-.987 2.7421-2.1084 3.7102-3.3992 1.243-1.6574 1.9437-3.5258 1.9437-5.5586.0042-2.7409-.9636-5.3993-2.7316-7.4999-1.7685-2.1006-4.2227-3.5074-6.9287-3.9715z" fill="#fff"/></svg>
