<svg fill="none" height="64" viewBox="0 0 64 64" width="64" xmlns="http://www.w3.org/2000/svg" xmlns:xlink="http://www.w3.org/1999/xlink"><path clip-rule="evenodd" d="m3 6.3712c0-3.5168 2.82784-6.3712 6.3175-6.3712h44.365c3.4897 0 6.3175 2.8736 6.3175 6.3712v51.2576c0 3.5168-2.8278 6.3712-6.3175 6.3712h-44.365c-3.48966 0-6.3175-2.8736-6.3175-6.3712zm6.3175 48.0256c0 1.7696 1.425 3.2032 3.1888 3.2032h37.9715c1.7607 0 3.1889-1.424 3.1889-3.2032v-44.8192c0-1.7696-1.425-3.2032-3.1889-3.2032h-37.9556c-1.7607 0-3.18887 1.424-3.18887 3.2032zm6.3492-35.1968c0-1.7664 1.4028-3.2 3.1951-3.2h6.2732c1.7638 0 3.1952 1.4208 3.1952 3.2 0 1.7664-1.4029 3.2-3.1952 3.2h-6.2732c-1.7638 0-3.1951-1.4208-3.1951-3.2zm0 12.8c0-1.7664 1.444-3.2 3.1508-3.2h25.3618c1.7417 0 3.1509 1.4208 3.1509 3.2 0 1.7664-1.444 3.2-3.1509 3.2h-25.3618c-1.7417 0-3.1508-1.4208-3.1508-3.2zm0 12.8c0-1.7664 1.444-3.2 3.1508-3.2h25.3618c1.7417 0 3.1509 1.4208 3.1509 3.2 0 1.7664-1.444 3.2-3.1509 3.2h-25.3618c-1.7417 0-3.1508-1.4208-3.1508-3.2z" fill="#fff" fill-rule="evenodd"/></svg>
