<svg fill="none" height="64" viewBox="0 0 64 64" width="64" xmlns="http://www.w3.org/2000/svg" xmlns:xlink="http://www.w3.org/1999/xlink"><path clip-rule="evenodd" d="m32 5.81818c-14.4598 0-26.18182 11.72202-26.18182 26.18182 0 14.4597 11.72202 26.1818 26.18182 26.1818 14.4597 0 26.1818-11.7221 26.1818-26.1818 0-14.4598-11.7221-26.18182-26.1818-26.18182zm-32 26.18182c0-17.6731 14.3269-32 32-32 17.673 0 32 14.3269 32 32 0 17.673-14.327 32-32 32-17.6731 0-32-14.327-32-32zm24.7273-11.6364c1.6066 0 2.9091 1.3025 2.9091 2.9091v17.4546c0 1.6066-1.3025 2.9091-2.9091 2.9091-1.6067 0-2.9091-1.3025-2.9091-2.9091v-17.4546c0-1.6066 1.3024-2.9091 2.9091-2.9091zm14.5454 0c1.6067 0 2.9091 1.3025 2.9091 2.9091v17.4546c0 1.6066-1.3024 2.9091-2.9091 2.9091-1.6066 0-2.9091-1.3025-2.9091-2.9091v-17.4546c0-1.6066 1.3025-2.9091 2.9091-2.9091z" fill-rule="evenodd" fill="#fff"/></svg>
