<svg fill="none" height="64" viewBox="0 0 64 64" width="64" xmlns="http://www.w3.org/2000/svg" xmlns:xlink="http://www.w3.org/1999/xlink"><path clip-rule="evenodd" d="m0 32c0-17.6731 14.3269-32 32-32 17.673 0 32 14.3269 32 32 0 17.673-14.327 32-32 32-17.6731 0-32-14.327-32-32zm32-26.18182c-14.4598 0-26.18182 11.72202-26.18182 26.18182 0 14.4597 11.72202 26.1818 26.18182 26.1818 14.4597 0 26.1818-11.7221 26.1818-26.1818 0-14.4598-11.7221-26.18182-26.1818-26.18182z" fill-rule="evenodd" fill="#fff"/><path d="m24.6605 23.3111c0-1.3897 0-2.0845.2895-2.4724.2522-.3381.6384-.5495 1.0582-.5797.4818-.0345 1.0643.3413 2.2295 1.0927l13.6998 8.8359c1.0111.6519 1.5167.978 1.6911 1.3926.1527.3622.1527.771 0 1.1332-.1744.4146-.68.7407-1.6911 1.3926l-13.6998 8.8358c-1.1652.7514-1.7477 1.1273-2.2295 1.0927-.4198-.03-.806-.2417-1.0582-.5797-.2895-.3878-.2895-1.0825-.2895-2.4722z" fill="#fff"/></svg>
