<svg fill="none" height="800" viewBox="0 0 24 24" width="800" xmlns="http://www.w3.org/2000/svg" xmlns:xlink="http://www.w3.org/1999/xlink"><path clip-rule="evenodd" d="m13 11c1.9509 0 3.2542-.6723 4.1047-1.80625.7554-1.00721 1.0786-2.30196 1.3429-3.36083l.0225-.09038c.2938-1.17514.5366-2.08485 1.0252-2.73629.4152-.55354 1.0806-1.00625 2.5047-1.00625.5523 0 1-.44772 1-1 0-.552285-.4477-1-1-1-1.9509 0-3.2542.672288-4.1047 1.80625-.7554 1.00721-1.0786 2.30196-1.3429 3.36083l-.0225.09038c-.2938 1.17514-.5366 2.08485-1.0252 2.73629-.4152.55354-1.0806 1.00625-2.5047 1.00625-.5523 0-1 .44771-1 1 0 .5523.4477 1 1 1zm-4.79839-10.599243c.33153-.4417128.95836-.531038 1.40007-.199513.63022.472978 1.16102 1.065446 1.56222 1.743586.4012.67813.6649 1.42865.7761 2.2087s.0676 1.57436-.1282 2.33757-.5401 1.48038-1.013 2.11056c-.3316.44172-.9584.53104-1.40012.19952-.44171-.33153-.53103-.95836-.19951-1.40008.31532-.42012.5448-.89823.67535-1.40704.13058-.5088.15958-1.03834.08548-1.55838-.0741-.52003-.24991-1.02038-.51738-1.47247-.26748-.45208-.62138-.84706-1.0415-1.16238-.44171-.33153-.53103-.958361-.19951-1.400073zm-2.20161 5.599243c.55228 0 1-.44772 1-1s-.44772-1-1-1-1 .44772-1 1 .44772 1 1 1zm-.20756 3.0218c.33113-.07027.67533.03175.9147.27111l7.99996 7.99999c.2394.2394.3414.5836.2711.9147-.0702.3311-.3032.6042-.6192.7258l-12.99999 5c-.36885.1418-.786647.0532-1.066088-.2263-.2794405-.2794-.3681032-.6972-.2262387-1.0661l4.9999967-12.99996c.12152-.31595.39462-.54897.72576-.61924zm.58855 2.7734-1.15881 3.0129 3.96977 3.9698 3.01295-1.1588zm-3.63991 9.4638 1.69543-4.4082 2.71269 2.7127zm16.25892-2.259c.5523 0 1-.4477 1-1s-.4477-1-1-1-1 .4477-1 1 .4477 1 1 1zm-.9921-4.875c.5089-.1303 1.0385-.1591 1.5584-.0847.52.0744 1.0203.2504 1.4723.5181.4519.2677.8467.6218 1.1618 1.0421.3313.4419.9581.5316 1.4.2003s.5315-.9581.2002-1.4c-.4727-.6304-1.0648-1.1616-1.7428-1.5631-.6779-.4016-1.4283-.6657-2.2083-.7773-.78-.1115-1.5743-.0684-2.3376.1271-.7633.1954-1.4807.5393-2.1111 1.0119-.4419.3313-.5315.9581-.2002 1.4s.9581.5315 1.3999.2002c.4203-.3151.8986-.5443 1.4074-.6746z" fill="#000" fill-rule="evenodd"/></svg>
