<svg fill="none" height="64" viewBox="0 0 64 64" width="64" xmlns="http://www.w3.org/2000/svg" xmlns:xlink="http://www.w3.org/1999/xlink"><path d="m25.6 0c14.1385 0 25.6 11.4615 25.6 25.6 0 5.7968-1.9267 11.1436-5.1746 15.4349l-.2021.2626 17.2395 17.2398c1.2371 1.2372 1.2495 3.2353.037 4.4877l-.0371.0378c-1.2497 1.2496-3.2758 1.2496-4.5255-.0001l-17.2394-17.2396-.2629.2023c-4.1867 3.1687-9.3779 5.0798-15.0116 5.1712l-.4233.0034c-14.1385 0-25.6-11.4615-25.6-25.6s11.4615-25.6 25.6-25.6zm0 6.4c-10.6039 0-19.2 8.5961-19.2 19.2s8.5961 19.2 19.2 19.2 19.2-8.5961 19.2-19.2-8.5961-19.2-19.2-19.2z" fill="#fff"/></svg>
