<svg fill="none" height="64" viewBox="0 0 40 64" width="40" xmlns="http://www.w3.org/2000/svg"><path clip-rule="evenodd" d="m22.8285 1.17156c-1.562-1.562081-4.0949-1.562081-5.6569 0l-16.00004 16.00004c-1.562081 1.5621-1.562081 4.0948 0 5.6569 1.56213 1.5619 4.09477 1.5619 5.6569 0l13.17164-13.17165 13.1716 13.17165c1.562 1.5619 4.0948 1.5619 5.6568 0 1.562-1.5621 1.562-4.0948 0-5.6569zm-21.65694 45.65694 16.00004 16c1.562 1.562 4.0949 1.562 5.6569 0l16-16c1.562-1.562 1.562-4.0948 0-5.6568s-4.0948-1.562-5.6568 0l-13.1716 13.1716-13.17164-13.1716c-1.56213-1.562-4.09477-1.562-5.6569 0-1.562081 1.562-1.562081 4.0948 0 5.6568z" fill="#676d7c" fill-rule="evenodd"/></svg>
