<svg viewBox="0 0 64 64" xmlns="http://www.w3.org/2000/svg"><path d="m62.7 25.3c-1.1-1.5-2.9-2.3-4.7-2.3h-6.5l-11.1-16.6c-.9-1.4-2.8-1.7-4.1-.8-1.4.9-1.7 2.8-.8 4.1l8.8 13.3h-24.7l8.8-13.3c.9-1.4.5-3.2-.8-4.1-1.4-.9-3.2-.5-4.1.8l-11.1 16.6h-6.5c-1.9 0-3.6.8-4.7 2.3s-1.5 3.3-1.1 5.1l5.4 21.6c1 4 4.6 6.8 8.7 6.8h35.4c4.1 0 7.7-2.8 8.7-6.8l5.4-21.6c.4-1.8 0-3.7-1.1-5.1zm-10.1 25.3c-.3 1.3-1.5 2.3-2.9 2.3h-35.4c-1.4 0-2.6-.9-2.9-2.3l-5.4-21.6s0 0 0 0h8.1s0 0 0 0h35.8s0 0 0 0h8.1s-5.4 21.6-5.4 21.6z" fill="#fff"/></svg>
