<svg fill="none" height="64" viewBox="0 0 64 64" width="64" xmlns="http://www.w3.org/2000/svg"><path d="m32 9c3.9894 0 7.82.82526 11.4688 2.3756 3.1808 1.3514 6.1673 3.2287 8.9611 5.5384 2.3358 1.9312 4.476 4.1133 6.4221 6.463 1.5055 1.8177 2.8106 3.6322 3.9136 5.3622.4367.685.5788.9243.7664 1.3481.1419.3204.25.6448.3303.9919.1836.7945.1836 1.8164-.0001 2.6112-.0802.3467-.1883.6711-.3302.9915-.1876.4238-.3297.6631-.7665 1.3483-1.1028 1.7298-2.408 3.5443-3.9135 5.3621-1.9461 2.3496-4.0863 4.5318-6.4221 6.463-2.7938 2.3097-5.7803 4.1869-8.9611 5.5384-3.6488 1.5503-7.4794 2.3755-11.4688 2.3755s-7.8199-.8252-11.4687-2.3755c-3.1808-1.3515-6.1673-3.2287-8.9611-5.5384-2.33586-1.9312-4.47607-4.1134-6.42213-6.463-1.5055-1.8177-2.81064-3.6323-3.9135-5.3621-.436866-.6854-.57888-.9245-.766443-1.3482-.141802-.3203-.249955-.6446-.330166-.9913-.1839481-.7949-.1839481-1.8173.000001-2.6122.08021-.3466.188363-.671.330165-.9913.187563-.4236.329577-.6627.766453-1.3482 1.10289-1.7298 2.40801-3.5443 3.91349-5.362 1.94607-2.3497 4.08627-4.5318 6.42213-6.463 2.7938-2.3097 5.7803-4.187 8.9611-5.5384 3.6488-1.55034 7.4793-2.3756 11.4687-2.3756zm-25.70018 24.0262c2.34095 3.6484 5.38548 7.3095 9.05198 10.3407 5.0749 4.1956 10.6307 6.5562 16.6482 6.5562s11.5734-2.3606 16.6482-6.5562c3.706-3.0638 6.7766-6.7712 9.1272-10.4582.1916-.3005.2796-.4428.3215-.5167l.0013-.0023v-.0051-.0051l-.0013-.0023c-.0407-.0716-.1246-.2075-.3042-.4896l-.0172-.0269c-2.3508-3.6872-5.4213-7.3945-9.1273-10.4584-5.0749-4.1956-10.6307-6.5561-16.6482-6.5561s-11.5733 2.3605-16.6482 6.5561c-3.7059 3.0639-6.77636 6.7711-9.12702 10.4581-.13357.2095-.21678.3421-.26914.4283l-.01297.0215c-.0164.0272-.02926.0491-.03942.0671l-.00148.0024v.0049.0048l.00148.0026c.04063.0717.1246.2076.3044.49l.01698.0266z" fill="#59d15b"/><path d="m32 26.2308c-3.3988 0-6.1538 2.755-6.1538 6.1538s2.755 6.1539 6.1538 6.1539 6.1539-2.7551 6.1539-6.1539-2.7551-6.1538-6.1539-6.1538zm0-6.1539c6.7975 0 12.3077 5.5102 12.3077 12.3077s-5.5102 12.3077-12.3077 12.3077-12.3077-5.5102-12.3077-12.3077 5.5102-12.3077 12.3077-12.3077z" fill="#59d15b"/></svg>
