<svg fill="none" height="64" viewBox="0 0 64 64" width="64" xmlns="http://www.w3.org/2000/svg" xmlns:xlink="http://www.w3.org/1999/xlink"><path d="m45.6377.0624938c3.1384.0006958 4.5013.0167492 5.7548.0966822l.0883.005749c.0294.001952.0588.00394.0881.005965l.088.006185c.0294.002099.0587.004235.088.006408l.0882.006636.0885.006867.0443.003521c2.0351.162622 3.5799.518424 4.9953 1.223703 2.4037 1.19782 4.3579 3.10916 5.5825 5.45998.7212 1.38419 1.085 2.89511 1.2513 4.88561.0085.1014.0164.2018.024.3022l.0063.0861c.0021.0287.0041.0574.0061.0861l.0059.0864c.0817 1.226.0981 2.559.0988 5.6285v17.3059c-.0007 2.9611-.016 4.3062-.0904 5.4981l-.0056.087c-.0009.0145-.0019.0289-.0028.0433l-.0059.0864c-.007.1006-.0144.2008-.0224.3014l-.0069.0863c-.0023.0289-.0047.0578-.0071.0868-.1663 1.9903-.5301 3.5012-1.2512 4.8854-1.2247 2.351-3.1788 4.2623-5.5826 5.4601-1.4153.7052-2.9601 1.0611-4.9952 1.2237-.0297.0024-.0592.0047-.0887.007l-.0883.0067c-.1028.0078-.2053.015-.3081.0219l-.0884.0057c-.0147.001-.0295.0019-.0443.0028l-.0889.0055c-1.2187.0728-2.594.0877-5.6216.0884l-8.4576.0001c-1.8814.0011-2.4771.0196-2.9586.1008l-.0326.0056c-.0109.002-.0217.0039-.0324.0059l-.0322.006c-.0161.0031-.0321.0062-.0482.0094-.5632.113-1.1084.3001-1.6212.5563-.0097.0049-.0194.0098-.029.0147l-.029.0148c-.029.015-.0579.0303-.0872.0462l-.0293.0161c-.432.2396-.9462.6216-2.4843 1.8249l-7.6181 5.9608c-.8194.6412-1.1942.9286-1.5527 1.1732l-.0406.0275c-.0067.0046-.0135.0092-.0202.0137l-.0406.0272c-.0475.0316-.0953.063-.1446.0948-.891.5761-1.7137.9072-2.7446.9083-1.4593.0019-2.8397-.6472-3.7496-1.762-.6437-.7886-.8934-1.6238-.9901-2.6644-.0023-.0247-.0045-.0491-.0066-.0733l-.0041-.0483c-.0013-.016-.0026-.032-.0039-.048l-.0054-.072c-.0005-.008-.0011-.016-.0017-.024l-.0032-.0483c-.0251-.3876-.0309-.8153-.0317-1.6714l-.0001-4.4206-.0028-.0001c-.0791-.0025-.1569-.0053-.2346-.0083l-.0518-.0021-.0519-.0021c-.0086-.0004-.0173-.0007-.026-.0011l-.0521-.0022-.0261-.0012c-1.1379-.0507-2.0163-.1612-2.86095-.3825-4.40824-1.1553-7.85163-4.5231-9.0329-8.8345-.226272-.8259-.33925-1.6851-.391144-2.7981-.000398-.0085-.000793-.017-.001184-.0255l-.002306-.051c-.00151-.0339-.002965-.0677-.004368-.1015l-.0020652-.0506c-.0023638-.0592-.0045693-.1184-.0066267-.1784l-.0017274-.0516c-.0197358-.6043-.0249474-1.2972-.0258249-2.6683v-.18c0-.0205 0-.041 0-.0618v-19.7755c.000725-3.1056.0175191-4.4336.1017702-5.6717l.005988-.0863c.001016-.0143.002042-.0287.003077-.043l.006324-.0861c.002146-.0287.00433-.0573.006552-.0861l.006785-.0862c.00115-.0144.002311-.0288.003481-.0432l.00714-.0867c.166278-1.99046.530082-3.50137 1.251189-4.88553 1.22473-2.3509 3.17897-4.26222 5.58264-5.46004 1.41526-.705283 2.9601-1.061097 4.99525-1.223723l.0886-.006984c.0148-.001144.0295-.002279.0442-.003404l.0882-.006636c.0294-.002174.0587-.00431.088-.006408l.088-.006185c.0147-.001012.0294-.002016.044-.00301l.0882-.005856c1.2659-.082401 2.6238-.0988262 5.799-.0995302zm.0919 6.2469762h-27.4592c-3.2048.00109-4.4178.01988-5.568.10578l-.0741.00564c-.0247.00191-.0494.00385-.0741.00582-1.2742.10182-2.0455.27946-2.61561.56359-1.20184.59891-2.17895 1.55457-2.79132 2.73003-.2905.55757-.47213 1.31197-.57624 2.55817-.00201.0241-.004.0483-.00595.0724l-.00576.0725c-.08783 1.1249-.10704 2.3113-.10816 5.4457v19.869c.0015 3.1199.04087 3.9015.21757 4.5465.59062 2.1556 2.31239 3.8396 4.51627 4.4172.6596.1728 1.4587.2113 4.6486.2127l.1983.0001c1.7638 0 3.1937 1.3984 3.1937 3.1235l-.0001 5.9951 6.5806-5.149c1.8197-1.4236 2.5052-1.9345 3.303-2.372l.0565-.0308c.1229-.0665.2492-.1317.3832-.1986 1.0253-.5125 2.1166-.8869 3.2433-1.1129 1.1347-.2279 1.8422-.2553 4.585-.2553l8.3525-.0001c3.136-.001 4.3648-.019 5.4937-.1003l.0743-.0054.0741-.0057c.0247-.0019.0494-.0038.0741-.0058 1.2742-.1018 2.0455-.2795 2.6158-.5637 1.2018-.5988 2.1787-1.5543 2.7911-2.7298.2905-.5577.4722-1.3121.5763-2.5583.002-.0241.004-.0483.0059-.0724l.0058-.0725.0056-.0727c.0831-1.1041.1015-2.306.1026-5.373v-17.4858c-.0011-2.9996-.0187-4.2151-.0972-5.3l-.0054-.073-.0056-.0726-.0058-.0725c-.0019-.0242-.0039-.0483-.0059-.0725-.1041-1.2462-.2858-2.0005-.5764-2.55827-.6123-1.17547-1.5893-2.13105-2.791-2.72988-.5703-.28417-1.3416-.46182-2.6158-.56364-.0247-.00197-.0494-.00392-.0741-.00582l-.0741-.00564c-1.1501-.0859-2.3631-.10469-5.568-.10578zm-13.6975 34.35853c1.7639 0 3.1938-1.3985 3.1938-3.1237 0-1.7251-1.4299-3.1236-3.1938-3.1236s-3.1938 1.3985-3.1938 3.1236c0 1.7252 1.4299 3.1237 3.1938 3.1237zm-.0321-28.1116c1.7638 0 3.1936 1.3984 3.1936 3.1234v10.9322c0 1.7251-1.4298 3.1235-3.1936 3.1235s-3.1936-1.3984-3.1936-3.1235v-10.9322c0-1.725 1.4298-3.1234 3.1936-3.1234z" fill="#f2cb30"/></svg>
