<svg fill="none" height="64" viewBox="0 0 64 64" width="64" xmlns="http://www.w3.org/2000/svg" xmlns:xlink="http://www.w3.org/1999/xlink"><path d="m31.5-.00003052c.0358 0 .0716.00000003.1074.00166626l.0013.00007569.0068.00015828.029.00122843.0167.00062012.0035.00023316.0082.0002832c.4011.01982708.7845.10824138 1.139.25394438l.0034.001453.0017.000687c.3539.145796.6891.352826.9899.62109l.006.005529.0054.004797.0118.010883.0195.017531c.0141.013052.0282.026243.0422.039573l.0046.00455.0013.001072c.013.012471.026.025042.0389.037716l.0382.03831 21 21.33333c1.3669 1.3885 1.3669 3.6398 0 5.0283-1.3668 1.3885-3.5829 1.3885-4.9497 0l-15.0252-15.2636.0001 48.305c0 1.9441-1.5359 3.5237-3.4422 3.5556h-.0578c-1.933 0-3.5-1.5919-3.5-3.5556l-.0001-48.305-15.0251 15.2636c-1.3531 1.3747-3.53863 1.3884-4.90845.0413l-.04125-.0413c-1.36684-1.3885-1.36684-3.6398 0-5.0283l21-21.33333.0383-.03831c.0128-.012674.0258-.025245.0389-.037716l.0011-.001072.0047-.00455c.014-.01333.0281-.026521.0423-.039573l.0193-.017531.012-.010883.0052-.004797.0062-.005529c.3007-.268264.6359-.475294.9898-.62109l.0016-.000687.0036-.001453c.3545-.145703.7378-.2341173 1.1389-.25394438l.0081-.0002832.0037-.00023316.0166-.00062012.029-.00122843.0067-.00015828.0014-.00007569c.0179-.00055541.0358-.000972.0537-.00166626z" fill="#000"/></svg>
