<svg fill="none" height="64" viewBox="0 0 64 64" width="64" xmlns="http://www.w3.org/2000/svg" xmlns:xlink="http://www.w3.org/1999/xlink"><path d="m4.17519 41.6c2.95697.0011 4.3163.017 5.52258.0907l.0891.0055c.04442.0029.08869.0058.13288.0088l.08825.0061c.0147.001.0294.0021.0441.0031l.0882.0065c.0294.0022.0588.0044.0882.0067l.0885.0069c.0295.0023.0591.0047.0888.0071 2.0392.1666 3.5872.5312 5.0052 1.2537 2.4085 1.2272 4.3667 3.1853 5.5939 5.5938.7225 1.4182 1.087 2.9661 1.2536 5.0052.0049.0594.0096.1184.0141.1773l.0067.0883c.0044.0588.0086.1175.0127.1763l.006.0884.0057.0887c.0785 1.2292.0951 2.5817.0963 5.6117v.222.1132.64c0 1.7673-1.4327 3.2-3.2 3.2s-3.2-1.4327-3.2-3.2l-.0001-.8528c-.0007-3.1494-.0178-4.4102-.0974-5.5342l-.0054-.0747c-.0055-.0746-.0112-.1488-.0173-.223-.1043-1.2768-.2863-2.0496-.5774-2.621-.6135-1.2041-1.5925-2.1831-2.797-2.7967-.5712-.2911-1.344-.4731-2.62077-.5774-.01238-.001-.02475-.002-.03712-.003l-.07423-.0059c-1.17608-.0914-2.39617-.1105-5.72051-.1113h-.85278c-1.7673 0-3.19999-1.4327-3.19999-3.2s1.43269-3.2 3.19999-3.2zm56.62481 0c1.7673 0 3.2 1.4327 3.2 3.2s-1.4327 3.2-3.2 3.2h-.8528c-3.3594.0008-4.57.0203-5.7578.1142l-.0742.006c-1.2767.1043-2.0495.2863-2.6209.5775-1.2042.6135-2.1832 1.5925-2.7968 2.7963-.2911.5715-.473 1.3444-.5773 2.6212-.001.0124-.002.0248-.003.0372l-.0059.0742c-.0895 1.1513-.1097 2.3448-.1112 5.5134l-.0001 1.06c0 1.7673-1.4327 3.2-3.2 3.2s-3.2-1.4327-3.2-3.2v-.9752c.0011-2.884.0162-4.2482.0853-5.4329l.0054-.0897.0055-.0891c.0133-.2073.0283-.4111.0452-.6189.1666-2.0391.531-3.5869 1.2536-5.0057 1.2275-2.4084 3.1855-4.3663 5.5937-5.5933 1.4181-.7226 2.9661-1.0872 5.0053-1.2538.0891-.0073.1774-.0142.2656-.0207l.0882-.0065c.0146-.001.0293-.0021.044-.0031l.0883-.0061c.0147-.001.0295-.002.0442-.003l.0887-.0058c1.2292-.0785 2.5817-.0951 5.6118-.0962zm-41.6-41.6c1.7673 0 3.2 1.43269 3.2 3.2v.64.11322.22198c-.0012 3.02999-.0178 4.38247-.0963 5.6117l-.0057.08866-.006.08837c-.0061.08827-.0126.17627-.0194.26457l-.0069.0885c-.0024.0296-.0047.0592-.0072.0888-.1666 2.0393-.5311 3.5872-1.2537 5.0053-1.2271 2.4084-3.1853 4.3666-5.5938 5.5938-1.4181.7225-2.966 1.0871-5.0052 1.2537-.0297.0024-.0593.0048-.0888.0071l-.0885.007c-1.36932.1053-2.65828.126-6.05331.1273h-.22198-.11322-.64c-1.7673 0-3.19999-1.4327-3.19999-3.2s1.43269-3.2 3.19999-3.2h.85278c3.32434-.0008 4.54443-.0199 5.72052-.1113l.07424-.0059.03711-.003c1.27676-.1043 2.04956-.2863 2.62086-.5774 1.2042-.6136 2.1833-1.5926 2.7969-2.7969.2911-.5712.4731-1.344.5774-2.62081l.006-.07423c.0939-1.18776.1134-2.39832.1141-5.75768l.0001-.85278c0-1.76731 1.4327-3.2 3.2-3.2zm25.6 0c1.7673 0 3.2 1.43269 3.2 3.2l.0001 1.05996c.0015 3.16856.0217 4.36208.1112 5.51343l.0059.07425.003.03711c.1043 1.27685.2862 2.04975.577 2.62045.6139 1.2046 1.593 2.1837 2.7973 2.7973.5712.291 1.3439.473 2.6207.5773 1.2125.0991 2.4026.1194 5.832.1202h.8528c1.7673 0 3.2 1.4327 3.2 3.2s-1.4327 3.2-3.2 3.2h-.64c-.038 0-.0757 0-.1132 0h-.222c-3.0301-.0011-4.3826-.0177-5.6118-.0962l-.0887-.0058-.0883-.006c-.0883-.0061-.1763-.0126-.2647-.0193l-.0884-.007c-.0296-.0023-.0592-.0047-.0889-.0071-2.0392-.1666-3.5871-.5312-5.0051-1.2537-2.4083-1.2271-4.3663-3.1851-5.5941-5.5941-.7224-1.418-1.0868-2.9659-1.2534-5.005-.1176-1.43963-.1401-2.68955-.1414-6.2306v-.9752c0-1.76731 1.4327-3.2 3.2-3.2z" fill="#000"/></svg>
